<?xml version="1.0" encoding="utf-8"?>
<!-- Generator: Adobe Illustrator 22.0.0, SVG Export Plug-In . SVG Version: 6.00 Build 0)  -->
<svg version="1.1" id="Layer_1" xmlns="http://www.w3.org/2000/svg" xmlns:xlink="http://www.w3.org/1999/xlink" x="0px" y="0px"
	 viewBox="0 0 1920 793" style="enable-background:new 0 0 1920 793;" xml:space="preserve">
<style type="text/css">
	.st0{display:none;}
	.st1{fill:#FFFFFF;}
	.st2{display:inline;fill:#FFFFFF;}
	.st3{display:none;fill:#FFFFFF;}
</style>
<rect id="Background" x="0" class="st0" width="1920" height="793"/>
<path id="Tidal" class="st1" d="M815.2,0.3h0.9c6.8,7.8,14.5,14.7,21.8,22.2l49.3,49.3v0.9c-23.9,23.8-47.7,47.8-71.6,71.6
	c-24-23.9-47.9-47.9-71.9-71.8c1.2-2.3,3.6-3.9,5.4-5.8C771.1,44.5,793.4,22.7,815.2,0.3z M959.2,0.3h0.9c0.7,1,1.3,1.9,2.2,2.8
	c23.1,22.9,45.9,46.1,69.2,68.9c-0.6,1.3-1.8,2.2-2.8,3.2c-23.1,23-46.1,46.1-69.2,69.1c-24.1-23.8-47.8-48-72-71.7
	C911,48.2,935.7,24.7,959.2,0.3z M1103.2,0.3h0.9c4.5,5.4,9.7,9.9,14.5,15c18.1,18.1,36.1,36.1,54.1,54.1c0.9,1,2.3,1.9,2.7,3.3
	c-24.2,23.6-47.7,48-72,71.6l-68.7-68.7c-1.1-1.2-2.6-2.1-3.1-3.7c12.2-11.8,24-24,36.1-36C1079.6,24.1,1091.6,12.5,1103.2,0.3z
	 M888.5,215.2c23.6-23.6,47.2-47.1,70.8-70.8l1,0.4c23.7,23.8,47.3,47.6,71.2,71.1c-0.8,1.8-2.5,2.8-3.7,4.2
	c-17.2,17.1-34.4,34.4-51.6,51.5c-5.6,5.4-10.9,11.4-16.6,16.4c-8.2-7.4-15.6-15.6-23.6-23.2c-16.1-16.1-32-32.2-48.2-48.1
	C888.1,216.4,888.3,215.7,888.5,215.2L888.5,215.2z M148.9,525h214.8c0.1,17.2,0.1,34.4,0,51.5h-77.4v203.2c-0.1,3.3,0.2,6.7-0.4,10
	h-59.7c0.2-71.1,0.1-142.1,0.1-213.2h-77.4V525z M542.9,525c20.1,0,40.2,0,60.3,0.1c-0.1,88.2,0.2,176.4-0.2,264.6h-60
	c-0.3-23.4-0.1-46.9-0.2-70.3C542.9,654.6,542.8,589.8,542.9,525z M1605.9,525c20.1,0,40.2,0,60.3,0.1v211.5
	c34.9,0.2,70,0.1,104.9,0.1v53H1606C1605.7,701.5,1606,613.3,1605.9,525z M1039.2,613.7c-6-20.8-17.8-39.6-34.1-53.8
	c-21.5-19.1-49.7-29.5-77.9-33.2c-16-2.3-32.2-1.7-48.2-1.8h-71.3c-1.3,0-2.8,0.1-4.1,0.3c0.3,87.4,0,174.8,0.2,262.3
	c-0.1,0.6-0.2,1.6-0.3,2.1h103.2c9.3-1.7,18.8-1.6,27.9-3.6c31.3-5.7,61.3-21.2,81.7-45.9c15.1-17.9,24.3-40.3,27.4-63.4
	C1046.2,655.7,1045.1,634,1039.2,613.7L1039.2,613.7z M971.2,701.6c-7.5,11.9-18.5,21.4-31.4,27.2c-11.6,5.4-24.5,7.8-37.2,8.2
	c-13.4,0.1-26.8,0-40.2,0.1c-0.7-14.9-0.1-29.7-0.3-44.5c0-38.7,0-77.4,0.1-116.1h41.4c20.8,0.4,41.9,7.6,56.9,22.3
	c13.5,13.1,21.1,31.5,22.3,50.1C984.1,667.1,980.8,686,971.2,701.6z M1420.1,727.4c-25.2-61.3-50.4-122.7-75.8-183.9
	c-2.3-6.1-4.8-12.4-7.6-18.3c-20.8-0.3-41.5-0.3-62.3,0c-35.5,85.4-71,170.8-106.5,256.1c-1.1,2.8-2.5,5.5-3,8.4h64.2
	c6.4-17.6,13.2-35.1,19.5-52.7c36.4-0.6,72.9-0.1,109.4-0.2c1.9-0.6,2.5,1.5,2.9,2.8c6.1,16.7,12.4,33.4,18.4,50.1h66.2
	C1437.5,768.7,1428.6,748.1,1420.1,727.4z M1265.6,690c-0.3-2.3,1.1-4.4,1.8-6.5c12.2-31.8,24.7-63.6,36.7-95.5
	c0.2-0.1,0.7-0.2,0.9-0.2c12.6,33.5,25.5,66.9,38.2,100.4c0,0.4,0.1,1.3,0.1,1.8C1317.4,689.7,1291.5,689.7,1265.6,690z"/>
<g id="Apple_Music" class="st0">
	<path class="st2" d="M436.1,405.9c-0.5-29.6,12.3-52.7,38.4-69.2c-14.7-21.4-36.3-33.4-65-36c-10.2-1-23.2,1.5-39.1,7.3
		c-17,6.3-26.6,9.5-28.8,9.5c-4.5,0-13.1-2.7-25.9-8c-12.8-5.3-23.7-8-32.7-8c-15.2,0.2-29.2,4.4-42.3,12.6
		c-13,8.1-23.4,19.2-31.2,33.3c-10,17.5-14.9,38.4-14.9,62.6c0,21.8,3.7,43.7,11,65.5c6.9,20.9,15.6,39.2,26.3,55
		c9.5,14.3,17.8,24.8,24.9,31.3c10.2,10.2,20.6,15.1,31.3,14.6c6.9-0.3,15.9-2.8,27-7.7c10.4-4.6,20.8-6.9,31.3-6.9
		c9.7,0,19.8,2.3,30.2,6.9c11.6,4.9,21.1,7.3,28.4,7.3c10.9-0.5,21.1-5.2,30.6-14.2c3.3-2.9,6.9-6.9,10.8-12c4.5-5.9,8.8-12,13-18.2
		c3.5-5.3,6.7-10.8,9.8-16.4c3.3-6,6.2-12.2,8.7-18.6c1.2-2.7,2.2-5.4,3.2-8.2c0.9-2.8,1.9-5.6,2.8-8.6c-8.8-3.9-16.7-9.4-23.8-16.4
		C444.2,447.9,436.3,428.8,436.1,405.9L436.1,405.9z M693.6,470.8h-1.7L619.7,306h-56.6v265.9h49.4V399.7h2.3L675,536.5h34.6
		l60.1-136.8h2.3v172.2H822V306h-56.3L693.6,470.8z M391.3,271.2c12.6-15.8,18.8-32.8,18.8-51v-3.6c0-1.2-0.1-2.4-0.4-3.6
		c-8.8,0.5-18.1,3.3-27.9,8.4c-9.8,5.1-17.9,11.5-24.3,19.3c-12.8,15.3-19.2,31.7-19.2,49.2v3.4c0,1.1,0.1,2.2,0.4,3.5
		C358.4,298.7,375.9,290.2,391.3,271.2L391.3,271.2z M1398.9,306h55.5V572h-55.5V306z M1621.9,348.3c32.9,0,50.3,25.3,50.3,52.6
		h53.2v-5.7c0-51.4-39.2-94.3-103.9-94.3c-69.3,0-110.6,45.6-110.6,123.3v30c0,77.7,40.9,122.7,110.4,122.7
		c66.4,0,104.1-43.5,104.1-91.8v-5.8h-53.2c0,27.5-17,50.3-49.9,50.3c-33.7,0-55.1-24-55.1-75.2v-30
		C1567.2,373.4,1588.8,348.3,1621.9,348.3L1621.9,348.3z M1034.2,473.9c0,35.7-20.9,55.3-51.5,55.3c-30.8,0-51.7-19.5-51.7-55.3V306
		h-55.1v175.7c0,56.7,40.2,95.3,106.8,95.3c66.4,0,106.8-38.6,106.8-95.3V306h-55.3V473.9L1034.2,473.9z M1273,417.1l-39.6-9
		c-23.3-4.9-35.6-15.2-35.6-30.6c0-20.4,16.6-33.3,43.4-33.3c30.2,0,45.3,17.3,46.7,36h51.7c-0.6-47-39.8-79.7-98.1-79.7
		c-55.3,0-98.9,29-98.9,81.2c0,45.2,30.6,66.2,67.3,74.2l39.2,9.1c26.4,6,39.8,14.8,39.8,32.9c0,20.7-16.5,34.7-47.3,34.7
		c-33.1,0-50.5-17.5-52-37.2h-53.2c0.8,37.6,25.6,81.4,102.6,81.4c64.7,0,104.7-32.1,104.7-84.4
		C1343.6,444.3,1311.3,425.4,1273,417.1L1273,417.1z"/>
</g>
<path id="Spotify" class="st3" d="M287.9,107.1C128.9,107.1,0,236,0,395c0,159,128.9,287.9,287.9,287.9
	c159,0,287.9-128.9,287.9-287.9C575.9,236,447,107.1,287.9,107.1L287.9,107.1z M420,522.3c-5.2,8.5-16.2,11.1-24.7,6
	c-67.6-41.3-152.7-50.7-252.9-27.8c-9.7,2.2-19.3-3.8-21.5-13.5c-2.2-9.7,3.8-19.3,13.5-21.5C244,440.5,338.1,451.3,414,497.7
	C422.5,502.9,425.2,513.9,420,522.3L420,522.3z M455.2,444c-6.5,10.6-20.3,13.9-30.9,7.4C347,403.8,229,390,137.4,417.8
	c-11.9,3.6-24.4-3.1-28-15c-3.6-11.9,3.1-24.4,15-28c104.6-31.7,234.6-16.4,323.4,38.3C458.4,419.6,461.7,433.4,455.2,444L455.2,444
	L455.2,444z M458.2,362.3c-92.8-55.1-245.9-60.2-334.5-33.3c-14.2,4.3-29.3-3.7-33.6-17.9c-4.3-14.2,3.7-29.3,18-33.6
	c101.7-30.9,270.8-24.9,377.6,38.5c12.8,7.6,17,24.1,9.4,36.9C487.6,365.7,471,369.9,458.2,362.3L458.2,362.3z M783.4,372.9
	c-49.7-11.9-58.6-20.2-58.6-37.7c0-16.5,15.6-27.6,38.7-27.6c22.4,0,44.6,8.4,67.9,25.8c0.7,0.5,1.6,0.7,2.5,0.6
	c0.9-0.1,1.6-0.6,2.1-1.3l24.3-34.2c1-1.4,0.7-3.4-0.6-4.4c-27.7-22.3-59-33.1-95.5-33.1c-53.7,0-91.2,32.2-91.2,78.3
	c0,49.4,32.3,66.9,88.2,80.4c47.6,11,55.6,20.1,55.6,36.5c0,18.2-16.2,29.5-42.4,29.5c-29,0-52.7-9.8-79.2-32.7
	c-0.7-0.6-1.6-0.8-2.4-0.8c-0.9,0.1-1.7,0.5-2.2,1.1l-27.2,32.4c-1.1,1.3-1,3.4,0.3,4.5c30.8,27.5,68.7,42,109.6,42
	c57.8,0,95.2-31.6,95.2-80.5c0.1-41.3-24.6-64.2-85.2-78.9L783.4,372.9L783.4,372.9z M999.5,323.8c-25.1,0-45.6,9.9-62.6,30.1v-22.8
	c0-1.8-1.5-3.3-3.3-3.3h-44.5c-1.8,0-3.3,1.5-3.3,3.3v253.1c0,1.8,1.5,3.3,3.3,3.3h44.5c1.8,0,3.3-1.5,3.3-3.3v-79.9
	c17,19,37.5,28.3,62.6,28.3c46.6,0,93.7-35.9,93.7-104.4C1093.3,359.7,1046.1,323.8,999.5,323.8L999.5,323.8L999.5,323.8z
	 M1041.5,428.3c0,34.9-21.5,59.3-52.3,59.3c-30.4,0-53.4-25.5-53.4-59.3c0-33.8,23-59.3,53.4-59.3
	C1019.5,369,1041.5,393.9,1041.5,428.3L1041.5,428.3L1041.5,428.3z M1214.1,323.8c-60,0-107,46.2-107,105.2
	c0,58.3,46.7,104.1,106.3,104.1c60.2,0,107.4-46,107.4-104.8C1320.7,369.7,1273.9,323.9,1214.1,323.8L1214.1,323.8L1214.1,323.8z
	 M1214.1,487.9c-31.9,0-56-25.6-56-59.6c0-34.1,23.2-58.9,55.2-58.9c32.1,0,56.3,25.6,56.3,59.7
	C1269.7,463.1,1246.3,487.9,1214.1,487.9L1214.1,487.9L1214.1,487.9z M1448.8,327.9h-49v-50.1c0-1.8-1.5-3.3-3.2-3.3h-44.5
	c-1.8,0-3.3,1.5-3.3,3.3v50.1h-21.4c-1.8,0-3.2,1.5-3.2,3.3v38.3c0,1.8,1.5,3.3,3.2,3.3h21.4v99c0,40,19.9,60.3,59.2,60.3
	c16,0,29.2-3.3,41.7-10.4c1-0.6,1.6-1.7,1.6-2.8v-36.4c0-1.1-0.6-2.2-1.5-2.8c-1-0.6-2.2-0.6-3.2-0.1c-8.6,4.3-16.9,6.3-26.1,6.3
	c-14.3,0-20.7-6.5-20.7-21v-92h49c1.8,0,3.2-1.5,3.2-3.3v-38.3C1452.1,329.4,1450.7,327.9,1448.8,327.9L1448.8,327.9z M1619.5,328.1
	V322c0-18.1,6.9-26.2,22.5-26.2c9.3,0,16.7,1.8,25.1,4.6c1,0.3,2.1,0.2,2.9-0.5c0.9-0.6,1.3-1.6,1.3-2.6v-37.5
	c0-1.4-0.9-2.7-2.3-3.1c-8.8-2.6-20.1-5.3-37-5.3c-41.1,0-62.8,23.2-62.8,66.9v9.4h-21.4c-1.8,0-3.3,1.5-3.3,3.3v38.5
	c0,1.8,1.5,3.3,3.3,3.3h21.4v152.7c0,1.8,1.5,3.3,3.2,3.3h44.5c1.8,0,3.3-1.5,3.3-3.3V372.7h41.6l63.7,152.7
	c-7.2,16-14.3,19.2-24,19.2c-7.8,0-16.1-2.3-24.5-7c-0.8-0.4-1.7-0.5-2.6-0.2c-0.8,0.3-1.6,0.9-1.9,1.8l-15.1,33.1
	c-0.7,1.6-0.1,3.4,1.4,4.2c15.8,8.5,30,12.2,47.5,12.2c32.9,0,51-15.3,67.1-56.5l77.2-199.6c0.4-1,0.3-2.1-0.3-3
	c-0.6-0.9-1.6-1.4-2.7-1.4h-46.3c-1.4,0-2.6,0.9-3.1,2.2l-47.5,135.6l-52-135.7c-0.5-1.3-1.7-2.1-3-2.1L1619.5,328.1L1619.5,328.1
	L1619.5,328.1z M1520.5,327.9H1476c-1.8,0-3.3,1.5-3.3,3.3v194.2c0,1.8,1.5,3.3,3.3,3.3h44.5c1.8,0,3.3-1.5,3.3-3.3V331.2
	C1523.8,329.4,1522.4,327.9,1520.5,327.9C1520.6,327.9,1520.6,327.9,1520.5,327.9L1520.5,327.9z M1498.5,239.5
	c-17.6,0-31.9,14.3-31.9,31.9c0,17.6,14.3,31.9,31.9,31.9c17.6,0,31.9-14.3,31.9-31.9C1530.5,253.8,1516.2,239.5,1498.5,239.5
	L1498.5,239.5L1498.5,239.5z M1888.5,390.4c-17.6,0-31.3-14.1-31.3-31.3c0-17.2,13.9-31.5,31.5-31.5c17.6,0,31.3,14.1,31.3,31.3
	C1920,376,1906.1,390.4,1888.5,390.4L1888.5,390.4z M1888.7,330.7c-16,0-28.2,12.8-28.2,28.4c0,15.6,12.1,28.2,28,28.2
	c16,0,28.2-12.7,28.2-28.4C1916.7,343.2,1904.6,330.7,1888.7,330.7L1888.7,330.7L1888.7,330.7z M1895.6,362.1l8.9,12.4h-7.5l-8-11.4
	h-6.9v11.4h-6.3v-32.9h14.7c7.6,0,12.7,3.9,12.7,10.5C1903.3,357.5,1900.2,360.8,1895.6,362.1L1895.6,362.1L1895.6,362.1z
	 M1890.3,347.2h-8.2v10.4h8.2c4.1,0,6.5-2,6.5-5.2C1896.8,349,1894.4,347.2,1890.3,347.2L1890.3,347.2L1890.3,347.2z"/>
</svg>
