<?xml version="1.0" standalone="no"?>
<!DOCTYPE svg PUBLIC "-//W3C//DTD SVG 20010904//EN"
 "http://www.w3.org/TR/2001/REC-SVG-20010904/DTD/svg10.dtd">
<svg version="1.0" xmlns="http://www.w3.org/2000/svg"
 width="599.000000pt" height="599.000000pt" viewBox="0 0 599.000000 599.000000"
 preserveAspectRatio="xMidYMid meet">
<metadata>
Created by potrace 1.11, written by Peter Selinger 2001-2013
</metadata>
<g transform="translate(0.000000,599.000000) scale(0.100000,-0.100000)"
fill="#000000" stroke="none">
<path d="M3155 5944 c-55 -25 -109 -49 -120 -54 -25 -11 -175 -59 -201 -65
-10 -2 -53 -11 -94 -20 -98 -21 -98 -21 -150 -29 -119 -16 -199 -24 -315 -31
-49 -3 -115 -8 -145 -11 -30 -3 -71 -7 -90 -9 -50 -6 -100 -13 -140 -20 -40
-7 -70 -12 -120 -19 -35 -6 -72 -12 -120 -20 -14 -3 -68 -12 -120 -20 -137
-23 -150 -25 -205 -36 -27 -5 -61 -11 -75 -14 -30 -5 -97 -17 -125 -23 -36 -7
-159 -32 -183 -37 -50 -11 -99 -32 -142 -62 -25 -17 -76 -43 -115 -57 -85 -33
-86 -33 -113 -77 -40 -67 -104 -120 -143 -120 -9 0 -22 -6 -28 -14 -7 -8 -36
-25 -65 -39 -63 -30 -73 -42 -53 -65 25 -30 28 -52 8 -69 -13 -10 -17 -25 -14
-43 5 -32 -7 -42 -51 -45 -17 -2 -38 -3 -46 -4 -8 -1 -1 -9 17 -19 17 -9 48
-36 69 -60 69 -79 190 -173 231 -179 52 -8 72 -20 112 -65 l35 -39 77 5 c43 3
97 10 121 17 92 25 186 11 223 -33 26 -31 27 -34 21 -134 -5 -99 -17 -146 -57
-229 -17 -35 -18 -45 -8 -70 14 -34 15 -79 4 -147 -6 -41 -3 -53 24 -104 28
-50 32 -67 35 -149 2 -68 7 -100 20 -120 25 -39 19 -125 -15 -200 -36 -81 -38
-184 -4 -251 17 -33 22 -57 18 -89 -5 -51 11 -86 59 -131 36 -34 206 -147 227
-152 21 -4 38 16 47 56 4 20 8 42 10 47 1 6 9 47 18 91 8 45 27 132 41 192 38
166 40 187 31 387 -1 22 4 63 11 90 13 48 16 60 27 115 10 43 14 62 40 165 31
127 35 152 42 250 11 159 11 230 -3 264 -17 45 -16 96 3 126 17 26 70 51 130
59 22 4 49 8 61 10 11 3 36 7 54 10 36 6 50 9 139 27 124 26 315 107 440 187
30 19 84 51 120 71 78 42 98 61 104 101 1 3 16 38 34 77 18 40 35 85 38 100 3
15 15 38 27 50 37 37 47 52 47 68 0 19 142 162 220 222 30 23 117 103 193 177
149 147 157 162 112 210 -55 59 -100 59 -230 0z"/>
<path d="M5227 5943 c-5 -8 -15 -74 -22 -143 -6 -50 -62 -265 -79 -298 -17
-35 -24 -63 -31 -137 -3 -33 -8 -80 -10 -105 -2 -25 -7 -83 -10 -130 -6 -87
-9 -112 -21 -235 -6 -66 -10 -101 -13 -117 -3 -19 -33 -5 -43 20 -7 15 -19 38
-27 51 -9 13 -16 29 -18 35 -10 48 -14 61 -29 77 -24 27 -62 36 -141 33 -115
-5 -153 -27 -280 -163 -140 -148 -176 -205 -233 -367 -33 -95 -63 -158 -107
-225 -33 -52 -76 -125 -95 -164 -59 -117 -126 -297 -133 -355 -4 -30 -8 -57
-10 -60 -5 -8 -17 -88 -20 -136 -2 -31 6 -63 32 -120 19 -44 48 -124 65 -179
16 -54 43 -118 59 -141 35 -51 198 -176 253 -194 55 -18 131 -8 206 27 85 40
105 46 165 48 28 1 66 8 85 17 77 35 158 55 177 44 41 -24 83 -60 83 -72 0
-21 123 -142 160 -157 19 -7 56 -12 82 -11 121 7 183 97 203 299 4 33 9 74 12
90 3 17 7 98 7 180 2 122 8 203 21 255 2 8 17 83 21 105 8 45 15 136 19 240 2
61 7 124 10 140 12 52 12 99 0 145 -6 25 -8 59 -5 75 4 17 5 71 2 120 -5 105
-4 138 3 470 2 138 5 268 5 289 1 22 -3 60 -9 85 -6 25 -13 60 -15 76 -3 17
-8 44 -11 60 -4 17 -8 39 -10 50 -25 149 -53 203 -194 372 -98 116 -98 116
-104 106z m-212 -1515 c13 -43 19 -173 11 -253 -3 -33 -8 -85 -11 -115 -3 -30
-7 -73 -10 -95 -3 -22 -7 -62 -10 -90 -11 -104 -19 -116 -76 -111 -21 2 -73
-5 -115 -15 -41 -10 -99 -21 -127 -24 -29 -4 -71 -10 -94 -14 -31 -6 -52 -4
-80 9 -57 25 -79 78 -89 216 -9 109 6 171 49 204 18 14 64 57 103 96 79 80
111 95 209 97 36 1 65 5 65 10 0 4 3 6 8 6 25 -4 45 6 86 46 48 45 73 56 81
33z"/>
<path d="M3660 5936 c0 -3 13 -31 30 -62 34 -66 32 -90 -11 -143 -23 -29 -26
-39 -21 -75 8 -48 7 -200 -1 -236 -3 -14 -10 -43 -16 -65 -9 -40 -16 -99 -26
-232 -7 -91 -23 -195 -59 -388 -15 -81 -65 -359 -71 -395 -6 -36 -23 -130 -30
-165 -12 -57 -26 -119 -44 -206 -11 -52 -23 -111 -25 -131 -3 -20 -12 -73 -21
-119 -16 -83 -19 -108 -29 -244 -3 -38 -15 -99 -27 -135 -32 -93 -30 -195 4
-252 28 -48 81 -94 144 -127 23 -11 50 -34 60 -51 9 -16 20 -30 23 -30 3 -1
25 -5 49 -9 40 -8 46 -6 68 17 13 14 21 27 18 30 -3 3 -1 10 4 16 12 16 46
131 61 206 7 36 25 115 40 175 33 132 40 172 54 330 5 52 14 128 21 180 2 17
7 62 10 100 4 39 13 101 20 140 8 38 11 73 9 77 -3 4 -1 8 3 8 5 0 9 8 9 18 1
18 10 81 18 118 5 24 16 87 21 124 4 28 11 69 26 155 6 33 12 74 14 90 2 17 4
30 5 30 1 0 3 9 6 20 26 123 26 651 -1 844 -11 83 -117 247 -171 265 -17 6
-44 27 -60 46 -41 50 -47 55 -71 68 -23 13 -33 15 -33 8z"/>
<path d="M3242 4771 c-34 -10 -65 -19 -67 -20 -3 0 -6 -1 -7 -2 -2 0 -12 -2
-23 -4 -11 -2 -31 -6 -45 -10 -14 -5 -93 -9 -177 -11 -164 -3 -206 -13 -211
-51 -3 -17 3 -24 23 -29 41 -10 67 -73 41 -100 -8 -8 -17 -14 -21 -14 -14 0
-85 82 -85 99 0 27 -65 81 -98 81 -156 0 -387 -332 -514 -739 -16 -53 -31
-104 -34 -113 -2 -10 -6 -27 -9 -38 -8 -30 -62 -266 -70 -300 -27 -123 -23
-244 10 -350 7 -25 21 -70 29 -101 14 -51 21 -60 66 -89 146 -94 259 -98 475
-19 84 30 161 28 230 -6 64 -31 82 -30 115 9 14 16 37 43 52 60 15 17 34 49
42 71 22 60 50 159 47 169 -1 4 2 13 7 20 24 32 62 166 68 245 3 31 18 110 35
176 29 115 33 149 43 315 3 41 12 107 22 145 9 39 17 77 19 85 2 8 4 16 5 18
3 2 7 18 9 31 0 5 24 31 51 57 49 47 132 158 163 220 13 25 14 38 5 67 -6 20
-18 45 -27 54 -9 10 -22 30 -30 45 -8 15 -27 32 -44 38 -16 5 -30 10 -31 9 -1
0 -29 -9 -64 -18z m-445 -602 c0 -13 -3 -44 -9 -69 -5 -25 -11 -54 -13 -65 -1
-11 -5 -33 -8 -50 -3 -16 -9 -50 -13 -75 -10 -56 -7 -44 -27 -115 -20 -70 -75
-182 -92 -189 -6 -2 -36 3 -66 11 -30 8 -104 16 -165 17 -61 2 -116 6 -122 10
-11 6 -9 19 8 61 5 11 24 58 43 105 20 47 52 128 73 180 21 52 46 104 57 116
25 29 88 51 167 58 36 3 83 12 105 20 50 18 60 16 62 -15z"/>
<path d="M509 3064 c-11 -14 -4 -104 11 -134 4 -8 10 -36 13 -62 3 -26 13 -57
21 -70 17 -26 19 -58 13 -166 -5 -85 9 -152 47 -215 21 -35 88 -123 264 -346
105 -132 185 -210 260 -254 21 -12 43 -27 50 -34 7 -7 17 -13 22 -13 5 0 14
-9 20 -19 8 -16 -3 -37 -61 -123 -223 -326 -297 -446 -385 -627 -76 -156 -106
-241 -109 -304 -3 -42 -14 -80 -40 -135 -59 -125 -57 -185 8 -256 38 -41 134
-87 169 -81 71 13 144 66 197 143 21 31 58 77 80 102 23 25 114 152 203 283
88 130 164 237 168 237 5 0 11 8 14 18 3 9 16 28 29 42 12 14 56 75 97 135 40
61 121 174 179 251 59 78 113 152 121 164 40 60 133 171 188 223 33 31 71 72
84 90 25 35 88 137 88 143 0 2 6 12 14 21 8 10 38 50 67 88 29 39 62 79 73 90
34 32 76 99 86 136 13 45 13 114 -1 164 -9 33 -123 281 -135 294 -2 2 -21 4
-43 4 -29 0 -51 -8 -78 -29 -67 -50 -416 -405 -523 -531 -57 -68 -107 -123
-111 -123 -5 0 -17 12 -26 27 -10 15 -38 48 -63 74 -25 25 -92 97 -150 159
-197 214 -235 253 -320 335 -113 109 -141 135 -151 135 -4 0 -14 6 -21 13 -7
6 -31 21 -53 32 -22 11 -42 22 -45 26 -3 3 -14 8 -25 12 -11 3 -68 26 -127 50
-89 37 -109 42 -119 31z"/>
<path d="M3297 2864 c-1 -2 -57 -5 -124 -8 -129 -5 -124 -4 -223 -73 -63 -44
-134 -131 -167 -203 -12 -25 -37 -79 -56 -120 -18 -41 -68 -124 -109 -185 -41
-60 -99 -150 -128 -198 -29 -49 -58 -91 -65 -94 -7 -2 -24 -28 -36 -56 -20
-44 -23 -69 -23 -162 -1 -118 6 -191 24 -271 7 -27 14 -58 16 -70 2 -12 10
-40 19 -63 8 -23 14 -45 15 -49 0 -14 33 -108 48 -137 29 -58 84 -115 145
-149 34 -20 84 -56 111 -80 80 -74 117 -88 230 -83 53 2 99 7 102 10 3 3 12 3
19 1 21 -8 145 26 205 56 30 15 92 53 138 84 53 36 108 63 155 77 40 12 88 30
108 40 40 20 119 104 119 125 0 8 5 14 10 14 6 0 10 4 10 10 0 5 11 33 24 62
20 46 47 114 72 183 11 29 44 146 50 175 2 14 7 33 10 42 15 51 17 75 18 201
l1 138 58 50 c55 49 148 151 212 233 17 21 36 45 44 53 7 8 16 34 18 57 6 48
-6 72 -69 139 -21 23 -38 44 -38 48 0 4 -11 21 -25 38 -43 51 -70 59 -186 54
-136 -5 -208 -5 -219 2 -5 3 -20 -7 -34 -22 -25 -26 -25 -26 -63 -10 -21 9
-52 19 -70 22 -48 8 -83 23 -116 51 -37 31 -83 55 -116 60 -39 6 -111 11 -114
8z m-109 -548 c39 -20 60 -24 117 -22 82 3 109 -6 135 -49 40 -64 93 -246 94
-320 2 -146 -96 -258 -204 -234 -46 10 -73 16 -145 29 -95 17 -193 52 -226 79
-31 26 -39 51 -56 161 -13 90 -8 141 21 200 42 86 114 155 179 170 17 4 33 8
35 9 1 1 24 -10 50 -23z"/>
<path d="M5167 2742 c-26 -5 -57 -77 -48 -111 14 -52 0 -238 -25 -335 -23 -88
-23 -88 -29 -220 -11 -248 -21 -338 -49 -441 -15 -57 -45 -119 -46 -94 0 29
-44 58 -95 64 -90 9 -119 16 -146 36 -36 26 -59 94 -49 147 7 42 12 209 14
478 0 150 0 151 -31 215 -36 72 -129 173 -181 195 -36 16 -64 7 -82 -26 -6
-10 -12 -56 -15 -102 -8 -136 -22 -196 -66 -273 -10 -16 -24 -57 -32 -90 -14
-54 -19 -83 -33 -180 -2 -16 -6 -37 -9 -45 -3 -8 -7 -40 -10 -70 -3 -30 -8
-77 -11 -105 -4 -27 -8 -84 -9 -125 -1 -41 -9 -91 -17 -110 -11 -25 -15 -69
-14 -151 1 -112 2 -119 35 -181 18 -36 54 -87 80 -115 43 -47 161 -140 161
-128 0 3 11 -2 25 -11 14 -9 25 -12 25 -8 0 5 12 -4 26 -20 39 -41 123 -92
181 -109 50 -15 80 -13 114 8 32 20 134 225 113 225 -3 0 4 14 16 30 28 39 37
38 49 -7 7 -25 22 -45 43 -59 18 -12 69 -45 113 -74 154 -101 193 -106 321
-44 28 14 75 47 104 74 55 51 162 198 154 212 -3 4 -1 8 4 8 5 0 16 26 25 58
52 179 49 281 -7 322 -28 20 -85 40 -117 40 -51 0 -126 29 -144 56 -15 23 -16
37 -7 113 14 121 12 323 -3 411 -18 105 -52 232 -63 239 -22 13 -163 200 -189
248 -28 52 -42 62 -76 55z"/>
<path d="M2067 874 c-2 -2 -19 -6 -38 -8 -37 -5 -100 -15 -132 -22 -121 -23
-325 -121 -393 -189 -7 -6 -25 -23 -42 -36 -16 -14 -42 -44 -57 -67 -27 -41
-74 -83 -106 -94 -9 -4 -26 -27 -39 -52 -12 -26 -37 -65 -56 -87 -35 -42 -35
-47 0 -93 12 -15 31 -19 103 -21 93 -3 192 -12 233 -21 14 -3 82 -6 151 -8 69
-1 131 -6 138 -10 13 -9 142 -9 179 -1 29 6 90 20 142 31 56 11 176 31 195 32
65 3 134 2 160 -3 81 -15 269 -54 338 -71 9 -2 26 -6 37 -9 24 -6 55 -13 90
-20 23 -4 42 -7 140 -19 19 -3 62 -14 95 -24 33 -11 125 -34 205 -52 113 -25
157 -30 200 -25 30 3 95 8 144 10 191 8 299 29 388 75 31 16 76 32 99 35 24 3
88 29 145 59 105 56 227 104 279 112 17 2 54 6 83 9 64 8 75 10 132 25 66 18
79 20 146 29 62 9 98 26 145 68 24 22 33 23 166 24 77 1 162 5 189 10 27 5 63
11 81 14 21 4 34 13 39 28 11 33 13 48 7 62 -7 19 -80 52 -130 58 -22 4 -52 8
-65 11 -12 3 -39 8 -58 11 -19 2 -46 7 -60 10 -14 3 -38 7 -55 9 -40 6 -103
15 -140 21 -32 5 -62 9 -160 22 -72 9 -454 9 -580 0 -175 -14 -305 -26 -350
-33 -48 -8 -80 -12 -163 -19 -42 -4 -86 -9 -97 -11 -51 -11 -183 -4 -225 11
-25 9 -56 19 -70 21 -14 3 -32 7 -40 10 -8 3 -31 7 -50 9 -41 4 -99 14 -120
20 -8 2 -31 7 -50 10 -19 3 -64 14 -100 25 -36 11 -103 26 -150 34 -98 18
-149 24 -335 40 -129 12 -181 17 -210 21 -16 2 -66 6 -110 10 -44 4 -98 9
-120 12 -58 7 -144 11 -148 7z"/>
</g>
</svg>
