<?xml version="1.0" encoding="utf-8"?>
<!-- Generator: Adobe Illustrator 21.1.0, SVG Export Plug-In . SVG Version: 6.00 Build 0)  -->
<svg version="1.1" id="Capa_1" xmlns="http://www.w3.org/2000/svg" xmlns:xlink="http://www.w3.org/1999/xlink" x="0px" y="0px"
	 viewBox="0 0 444.8 280.4" style="enable-background:new 0 0 444.8 280.4;" xml:space="preserve">
<style type="text/css">
	.st0{fill:#CCCCCC;}
</style>
<g>
	<path class="st0" d="M434,196.4L248.4,10.6C241,3.5,232.3,0,222.4,0c-10.1,0-18.7,3.5-25.7,10.6L10.8,196.4
		C3.6,203.7,0,212.3,0,222.4c0,10.3,3.6,18.8,10.8,25.7l21.4,21.4c6.9,7.2,15.4,10.9,25.7,10.9s18.8-3.6,25.7-10.9L222.4,131
		l138.8,138.5c6.8,7.2,15.4,10.9,25.7,10.9c10.1,0,18.7-3.6,26-10.9l21.4-21.4c7-7,10.6-15.6,10.6-25.7
		C444.8,212.3,441.2,203.7,434,196.4z"/>
</g>
</svg>
