<svg id="Capa_1" data-name="Capa 1" xmlns="http://www.w3.org/2000/svg" viewBox="0 0 444.8 280.4"><defs><style>.cls-1{fill:#fff;}</style></defs><title>arrowDownWhite</title><path class="cls-1" d="M10.9,84,196.5,269.8a36.36,36.36,0,0,0,26,10.6,34.71,34.71,0,0,0,25.7-10.6L434.1,84a35.66,35.66,0,0,0,10.8-26,34.05,34.05,0,0,0-10.8-25.7L412.7,10.9A34.14,34.14,0,0,0,387,0c-10.3,0-18.8,3.6-25.7,10.9L222.5,149.4,83.7,10.9A34,34,0,0,0,58,0,35.37,35.37,0,0,0,32,10.9L10.6,32.3A35.1,35.1,0,0,0,0,58,36.15,36.15,0,0,0,10.9,84Z"/></svg>