<?xml version="1.0" encoding="utf-8"?>
<!-- Generator: Adobe Illustrator 22.0.0, SVG Export Plug-In . SVG Version: 6.00 Build 0)  -->
<svg version="1.1" id="Logo" xmlns="http://www.w3.org/2000/svg" xmlns:xlink="http://www.w3.org/1999/xlink" x="0px" y="0px"
	 viewBox="0 0 563.4 599.2" style="enable-background:new 0 0 563.4 599.2;" xml:space="preserve">
<style type="text/css">
	.st0{fill:#EA0000;}
</style>
<path d="M0,105.4c1.9-1.3,3.4-0.7,4.8-0.8c3.3-0.1,8,1.3,5.5-5.1c-0.4-1.2,0.1-2.4,1.1-3.1c4.4-2.2,2.1-4.5,0.2-6.7
	c-2.5-3-1.1-5.1,1.9-5.9c3.6-1,6.8-2.2,9.3-5.1c0.6-0.6,1.3-1,2.1-1.1c8.3-1.7,13-7.5,16.7-14.5c1.3-2.4,3.8-3.7,6.4-4.4
	c5.4-1.5,10.4-3.4,15-7c6.4-5.1,14.7-6.2,22.3-7.8c16.4-3.6,33.1-6.3,49.7-9.2c16-2.8,32-5.5,48.1-7.8c8.5-1.2,17.1-1.7,25.8-2.2
	c33.1-1.7,65.3-7.4,95.1-22.9c6.7-3.5,13.3-1.8,18,4.2c2.5,3.2,1.7,6.3-1.2,8.8c-11.6,9.7-20.7,22-33.2,30.7
	c-5.2,3.6-9,8.8-14.1,12.6c-1.7,1.3-3,3.1-4,5c-1.9,3.8-3.1,7.9-7.1,10.1c-0.7,0.5-1.1,1.3-1.2,2.1c-0.7,7.4-5.6,13.2-7.9,20.1
	c-1,3.1-2.3,6.2-5.7,7.6c-9,3.7-16.4,10-24.9,14.5c-11.5,6-23.4,11.2-36.1,13.7c-9.8,1.9-19.6,3.7-29.5,5.5
	c-8.3,1.5-13.6,8.7-8.6,17.4c0.6,0.8,0.9,1.8,0.9,2.7c-0.2,13.9,0.3,27.6-3.2,41.4s-6.7,27.5-9.7,41.3c-0.9,4.3,0.7,8.6,0.9,12.9
	c0.6,11.2-2.1,21.7-4.8,32.5c-2.5,9.9-3.6,20.2-6.2,30.2c-1.3,4.9-3.5,6.7-7.4,3.7c-7.4-5.7-16.4-9.2-22.7-16.6
	c-3-3.6-4.5-7.3-2.8-11.7c0.8-1.7,0.5-3.6-0.7-5c-4.8-6.8-4.3-14.7-3.2-22.1c0.7-4.6,4.5-8.6,5.2-13.9c0.6-4.8,0.9-9.1-2.1-13.1
	c-1.4-1.9-1.4-3.9-1.4-6.1c0-7.3,1-14.6-4.4-21.2c-3.8-4.6-0.6-10.6-0.5-15.9c0.1-2.8,0.5-5.4-1.8-7.9c-1.8-1.9,0.1-4.1,0.9-5.9
	c2.9-5.9,5.5-11.9,5.9-18.5c0.3-4.3,0.3-8.6,0.6-13s-4.2-8.4-8.8-9.2c-5.3-0.9-10.3-1.7-16,0.4c-5.3,1.9-11.7,1.1-17.6,2.1
	c-2.9,0.5-4.9-2.3-6.5-4.7c-2.2-3.3-4.8-5.2-9.3-5c-4.4,0.1-8-3.5-11.2-6.2c-5.5-4.7-11.4-9-15.6-15.1C5.5,108,2.6,107.1,0,105.4z
	 M72.3,130.8c5.2-0.6,8.1,1.5,11.4,1.9c9.2,1.2,14.4,7.9,14.6,17.2c0.2,10.2-1.3,20.1-5.5,29.4c-0.8,1.8-1.3,3.6-0.5,5.7
	c1.2,2.9,0.7,5.8,0.4,8.8c-0.5,4.7-2.2,9.9,1,14.1c3.4,4.5,4.1,9.3,3.7,14.6c-0.4,4.6,0.4,9.2,2.4,13.4c3.9,8.7,2.4,18-1.7,25.9
	c-3.7,7.2-3.5,13.1,0.1,19.5c1.8,3.3,2.9,6.7,1.5,10.5c-1.1,2.8,0.6,4.6,2.1,6.7c4.3,5.6,11.1,7.7,16.4,11.9c1.6,1.3,2.5,0.7,3-1.4
	c0.9-4,2.1-8,3-12c1.4-6.5,0.8-13.3,3.5-19.5c3.9-9,4.1-18.3,2.8-27.8c-0.5-4.1-0.9-8.4,0-12.4c3.5-16,7.6-31.8,11-47.8
	c2.6-12.4,3.4-24.9-0.6-37.3c-1-3.3-0.9-6.9,0.3-10.2c3-9.1,10.9-10.7,18.7-12.5c10.5-2.4,21.2-3.3,31.6-6.1
	c19.2-5.1,35.4-16.2,52.4-25.7c1.4-0.7,2.4-1.9,2.8-3.4c1.3-7.4,8.2-12.5,8.1-20.5c0-1.8,1.7-4.2,3.3-5.3c2.6-1.8,4-4.3,5.3-7
	c2.2-4.4,5.8-7.6,9.5-10.8c14.3-12.1,29.2-23.6,42.1-37.2c1.1-1.1,3-2.3,2.1-4.2c-0.9-2.1-2.8-3.5-5-3.8c-2.3-0.2-4.7,0.3-6.7,1.5
	c-6.3,3.4-12.9,6.2-19.7,8.3c-13.2,4.3-25.9,10.7-40.1,11.8c-9.3,0.7-18.5,1.1-27.8,2.5c-10,1.4-20.2,1.4-30.3,2.8
	c-17.6,2.4-35.2,5.2-52.6,8.4c-15.8,2.8-31.7,4.8-47.2,8.9c-8.1,2.1-16.8,3-23.5,8.7c-2.5,1.9-5.3,3.4-8.2,4.3
	c-3.6,1.3-7.7,1.7-10.2,5.5c-4.7,7-9.1,14.2-18.6,15.7c-2.4,0.4-4.9,2.9-6.5,5.1c-1.3,1.8,1.4,3.3,2.3,5s-0.3,2.6-1.5,3.1
	c-4.3,1.6-3.6,5.7-5,8.8c-2.4,5.1,1.5,6.7,4,9.2c4.2,4.3,8.4,8.7,14.8,9.5c4.5,0.6,8.4,2.3,11,6c2.6,3.6,5.8,4.1,9.9,3.6
	C62.2,133.3,68.4,133.3,72.3,130.8z"/>
<path d="M142.7,382.8c9.5-9.4,16.9-20.3,26.2-29.6c11.2-11.2,21.9-23,33.9-33.5c3.4-3,6.5-6.7,11.9-6.1c2.5,0.3,5,1,5.6,3.2
	c2.9,9.9,10.1,18,12.2,28.2c1.9,9.5,0.9,18-6.5,25.9c-9.2,9.9-17.1,20.9-23.7,32.6c-3.6,6.4-8.7,11.3-14.2,16.2
	c-5.7,5.1-10.6,11.6-14.8,17.9c-9.8,14.6-21.8,27.7-30.9,42.7c-5.8,9.6-13.4,17.8-19.8,26.9c-8.7,12.2-16.8,24.8-25.1,37.3
	c-0.7,1.1-1.6,2.1-2.5,3.1c-5.2,5.4-10.1,10.9-14,17.5c-3.1,5.3-9.2,8.7-14.9,11.1c-5.5,2.3-10.9-0.8-15.6-4
	c-10.6-7.4-12.2-15.8-6-27.3c3-5.6,5.7-10.9,5-17.6c-0.2-2.7,1.2-5.7,2.2-8.4C62.6,490,79.2,464.3,97,439.4c2.3-3.2,4.4-6.6,6.9-9.6
	c3.1-3.8,2.1-6-1.9-8.3c-9.7-5.8-18.7-12.8-25.8-21.5c-6.5-8.1-13-16.2-19.3-24.4c-4.1-5.4-8.6-10.5-12.4-16.1
	c-5.3-7.9-7.6-16.5-5.7-26.3c1-5.2,1.2-11-2.5-15.7c-0.3-0.4-0.9-0.9-0.8-1.2c1.2-7.6-4.1-14.1-3.5-21.7c0.3-3,1.3-3.5,3.7-2.5
	c14.9,6.3,30.4,10.9,43,22.3c20.8,18.8,38.2,40.7,58,60.4C139.1,377,140.7,379.9,142.7,382.8z M226.6,350c0.3-3.1-1.4-7.8-4.2-12
	c-2.2-3.5-4.1-7.2-5.5-11.1c-2.4-6.3-3.8-6.9-8.6-2.4c-7.7,7.3-15.8,14.1-23.1,22c-11.9,13-24,25.6-35.3,39.2
	c-4.9,5.9-10.1,5.7-14.3-0.6c-5.1-7.5-11.6-13.6-17.8-20.1c-15.5-16.3-29.7-33.7-46.8-48.3c-7.6-6.4-16.4-9.9-25.6-12.8
	c-1.3-0.4-3.2-0.9-2.9,1.8c0.4,4.2-0.4,8.5,2.1,12.5c2.9,4.5,2.2,9.8,1.3,14.6c-1.7,8,0.1,16.4,5,23.1c3.3,4.8,6.9,9.4,10.6,13.8
	c8.3,10.1,15.7,21,24.8,30.5c6.2,6.5,13.6,11.6,21.1,16.5c6.8,4.4,7.7,9.2,3.4,16c-1.6,2.5-3.4,4.9-5.2,7.3
	C91.5,459.5,78,479.4,67.3,501c-4.1,8.3-9,16.8-10.3,25.7c-1.2,8.5-3.7,16.7-7.6,24.3c-3.9,7.6,4.5,19.2,13.2,18.7
	c1-0.1,1.9-0.4,2.7-1c4.8-3.7,10.5-6.5,13-12.6c2.6-6.6,9.5-9.6,13.3-15.4c8.5-13,16.9-26,25.9-38.6c6.3-8.9,14-16.8,19.4-26.4
	c6.9-12.3,17.3-22.1,25-33.9s16.5-23.1,27.4-32.5c2.6-2.3,4.8-5.1,6.4-8.2c7.2-13.1,16.4-24.9,26.1-36.1
	C225,361,226.7,357.1,226.6,350z"/>
<path d="M194.1,511.5c13.1,1.3,26.3,2.7,39.4,4c11.5,1.1,23,1.8,34.5,3.2c7.9,1,16,2,23.6,4.3c12.1,3.7,24.5,5.8,36.9,7.6
	c5.2,0.8,9.7,3.4,15,4.3c8.1,1.5,15.8-0.2,23.7-0.7c7.4-0.5,14.7-1.6,22-2.6c14.8-2,29.6-2.6,44.4-3.8c14.1-1.1,28.3-1,42.4,0.3
	c19.4,1.7,38.6,5.2,57.8,8.6c4.1,0.7,8.3,1.4,11.9,3.9c1.8,1.2,3.2,2.7,2.3,4.9s-0.9,5.5-4.3,6.1c-4.8,0.9-9.6,1.8-14.5,2.2
	c-8.4,0.8-16.7-0.4-25,0.3c-1.7,0.2-3.6,0.5-4.5,1.7c-3.8,4.7-9.4,7.4-15.4,7.3c-8.2,0.2-15.5,4.5-23.5,5
	c-7.2,0.4-14.4,1.7-21.3,3.8c-7.2,2.2-13.9,6.2-20.6,9.8c-4.5,2.4-8.8,4.9-14.1,5.1c-2.6,0.2-5.2,1.1-7.4,2.6
	c-7.7,5.3-16.8,5.9-25.7,7.2c-9.8,1.5-19.8,0.6-29.6,2.2c-3,0.5-6,0.4-8.9-0.4c-11.2-3.4-23-4.2-34-8.5c-6.5-2.6-13.6-1.5-20.4-3.2
	c-14.5-3.6-29.2-7-43.9-9.8c-14.2-2.7-27.9,0.4-41.9,3.5c-10,2.2-20.4,4.7-31.1,1.5c-4.7-1.4-9.9,0.4-15-0.1
	c-13.4-1.3-26.8-3.8-40.3-3.3c-3.8,0.1-5.5-3.1-7-5.6c-1.2-2.1,0.8-4.2,2.5-5.8c2.4-2.2,4.3-5.1,5.3-8.2c1.3-3.8,4.3-6.1,7.8-7.8
	c3-1.4,5.4-3.8,6.8-6.8c1.6-3.6,4.5-6,7.4-8.5c15.9-13.8,34.4-21.3,55.2-23.3C187.8,512.2,190.9,511.2,194.1,511.5z M539.7,545.8
	c-5.2-2.8-10.1-3.1-14.7-4.2c-8.8-2.1-18.2-1-26.5-3.6c-13.1-4.1-26.3-2.7-39.5-4.2c-9.2-1.1-18.3,0.8-27.4,0.9
	c-17.3,0.3-34.4,2.8-51.6,4.5c-10.4,1-20.7,2.9-31.2,2.5c-13.7-0.5-26.5-5.7-39.8-8c-18.5-3.3-36.6-8.7-55.6-10
	c-15.1-1-30.1-2.7-45.2-4.1c-32.8-3.2-61.6,3.7-82.6,31.5c-0.7,1.1-1.7,2.1-2.8,2.8c-8.1,3.5-10.7,11.2-14.7,18.8
	c10.3-1.1,19.8,2.2,29.6,2.1c8.1,0,16.1,0.5,24.1,1.6c9.8,1.4,19.9,0.9,29.5-1.7c16.5-4.6,33.1-6.3,49.6-2.7
	c13.7,3,27.5,5.7,41.1,8.9c11.2,2.6,22.8,3.2,33.7,7.6c5,2,10.8,1.5,16,3.2c3.9,1.2,7.9,2,12.2,1.1c4.7-1,9.6-1.9,14.3-1.7
	c9.6,0.3,19.2-1,28.4-4c5.5-1.7,10.2-5.7,16.1-6.3c5.2-0.5,9.4-2.9,13.9-5.1c7-3.4,13.6-7.6,21.1-9.7c12.3-3.5,25.2-3.4,37.4-7.5
	c5.9-2,13-0.1,17.9-5.1c6.4-6.6,14.5-6,22.3-5.5C523.4,548.3,531.7,547.6,539.7,545.8L539.7,545.8z"/>
<path d="M505,3.7c4.4,3.4,7.1,8.2,10.7,12.2c1.8,2,3,4.5,5,6.2c11.4,9.8,13,23.5,15.5,36.9c1.1,6.1,2.3,12.3,3.6,18.4
	c0.4,2.1,0.4,4.3-0.1,6.4c-2.1,8.1-1,16.3-0.8,24.6c0.2,8.5,1.2,17.2-0.8,25.5c-1.4,6,0.2,11.5,0.7,17.2c0.5,4.8,0.5,9.6-0.1,14.4
	c-0.4,3.5-1.1,6.7,0.4,10.3c1.8,4.2,1,9,0.1,13.2c-1.8,8-1.1,16.2-1.5,24.2c-0.5,12.4-3.6,24.2-5.8,36.3c-0.7,3.7,0,7.1,0.2,10.7
	c0.3,6.4,0.7,12.8-0.7,19.3c-1.9,8.8-1,18.1-4.1,26.7c-3.3,9.1-8.5,16-22.4,14.5c-3.7-0.4-7.4-2.1-9-4.5c-2.9-4.2-8.2-6.1-10-11.8
	c-1.2-3.5-6.4-5.8-9.9-8.5c-0.6-0.4-1.3-0.4-1.9-0.1c-4.5,3.3-10.5,2.3-15.1,5.5c-3.7,2.5-8.1,1.1-12.2,1.6
	c-6.8,0.8-12.1,5.1-18.3,7.4c-5.7,2.1-16.7,0.9-21.3-3.1c-4.2-3.7-9.1-6.4-13.4-10.1c-5.9-5.2-9.9-12.2-11.1-20
	c-1.3-7.1-4.4-13.3-7.5-19.5c-2.4-4.9-3.4-9.2-2.1-14.6c1.5-6.2,2.2-12.5,3.2-18.8c0-0.5,0-1,0.1-1.5c6.4-17.1,12.6-34.3,23.7-49.1
	c4.5-6.1,7-12.9,9.1-19.9c3.8-13.2,10-24.9,20.5-34.1c3.7-3.2,6.4-7.6,9.7-11c5.2-5.6,12.6-8.8,20.2-8.7c5.2,0.1,10.9-1.7,15.3,3.2
	c1,1.1,2.3,2,2.3,3.7c-0.1,5.8,4.6,9.7,6,14.9c0.3,1.1,1.1,1.2,1.9,1c1.3-0.4,2.1-1.6,2-3c-0.1-3.5,0.8-6.9,1.1-10.4
	c1.4-16.8,2.6-33.6,4.1-50.4c0.3-3,1.1-5.8,2.3-8.6C501.1,35.6,502.8,19.9,505,3.7z M461.2,106.6c-9.2-0.1-13.4,2-19.1,9.3
	c-2,2.5-4.2,4.8-6.5,6.8c-10.5,9.1-16.8,20.6-20.5,33.9c-2.1,7.8-5.5,15.3-10.2,21.9c-11.2,15.4-18.4,32.9-22.9,51.3
	c-2.4,9.6-6.5,20,1.3,29.4c0.2,0.2,0,0.7,0.2,1c3,6.2,4.6,12.9,6.5,19.6c3.5,12.2,14.5,18.2,24.4,24.2c3.4,2,8.7,2.2,13.4-0.2
	c6.1-3.1,12-6.8,19.2-7.1c2.9-0.1,6,0.4,8.8-1c5.2-2.6,11.1-3.4,16.5-5.4c2.7-1,5.4-0.9,7.1,0.6c4.5,3.8,9.7,6.8,13,12
	c3.2,5,7,10,13,11.6c8,2,14.2-2.7,16.6-12.6c2.5-10.6,3-21.6,4.2-32.5c0.4-3,0.3-6-0.3-8.9c-1.1-4.2-0.8-8.1,0.1-12.3
	c1.9-8.7,4.3-17.4,5-26.3c0.9-11.7,1.2-23.5,2.1-35.3c0.7-9.3-2.4-18.6-0.2-27.9c0.5-2-0.3-4.3-0.4-6.4c-0.2-5.6-1.9-11.2-1.1-16.9
	c0.9-6.1,1.3-12.2,1.6-18.3c0.3-5.8-0.6-11.5-0.5-17.3c0.3-10.3,4-20.6,0.5-31.1c-1-3.7-1.7-7.5-2-11.3
	c-1.7-14.2-7.1-26.5-17.7-36.2c-1.2-1.1-2-3.2-4-2.5s-1.6,2.7-2,4.2c-0.7,2.9-1.2,5.8-1.7,8.8c-1.5,8.7-5.2,16.8-7.3,25.3
	c-3.2,13-2.4,26.4-3.2,39.7c-0.5,8.7-1.8,17.4-2.8,26.1c-0.5,4.1-3.3,6.2-7.1,6.5s-6.3-1.6-7.7-5.1c-1.9-4.9-5.6-9-6.4-14.5
	c-0.3-2.2-2.4-3.1-4.5-3.2C464.9,106.5,463,106.6,461.2,106.6z"/>
<path d="M480.3,446.6c4.1-8.9,5.8-17.9,6.9-27.1c1.6-12.7,1.3-25.5,2.1-38.3c0.4-7.2,4.1-13.8,4.4-21.1c0.3-8,2.9-16,0.6-24.1
	c-0.7-2.6,0.3-5.3,1.2-7.7s3.3-3.5,5.9-3.7s3.2,1.7,4.1,3.5c4.5,10.2,12.9,17.7,19.4,26.5c0.7,0.9,1.9,1.7,2.2,2.7
	c5,17.5,7.8,35.3,6,53.7c-0.5,4.8-1,9.6-1.5,14.4c-0.7,6.6,3,9.9,11.4,11.1c2.7,0.4,5.5,0.8,8.2,1.3c11.9,2,12.9,9.4,12,20.4
	c-1.2,13.9-6.7,26-15.3,36.5c-7.4,9.1-16.7,16.2-28.8,18.3c-2.3,0.3-4.6-0.1-6.7-1.1c-9.5-3.9-17.2-10.7-26-15.8
	c-3.2-1.9-3.1-6-4.4-9.2c-5.7,2.1-4.6,8.1-6.4,12.2c-2,4.7-4.6,9-7,13.4c-2.7,5-8,6.3-13.4,4.6c-7.9-2.4-14.8-6.1-20.2-12.4
	c-1.2-1.4-2.8-0.7-4-1.4c-14.7-8-26.1-18.8-30.7-35.5c2.4-8.5-1.9-17.5,2.7-26c2.2-4,0.5-9.2,1-13.9c1.6-16.5,3.7-32.9,7.3-49.1
	c0.5-2.2,1.3-4.3,2.5-6.3c5.9-9.9,7.5-20.8,7.4-32c0-2.4,0-4.6,1.4-6.6c3-4.3,6.3-4.6,10.3-1.3c6.3,5.2,12.2,10.6,15.9,18.1
	c3.8,7.9,4.4,16.2,2.7,24.6c-0.5,2.7,1.1,4.6,0.8,7.2c-1.9,13-0.1,26.2-2,39.2c-1.5,10.1,4.9,16.8,16.8,16.8
	C473.5,438.4,478.3,439.4,480.3,446.6z M501,335.6c0.5,9.8-0.7,18.3-1.4,26.9c-0.6,7.1-4.2,13.7-4.3,20.9
	c-0.2,12.8-0.2,25.6-2.1,38.3c-1.3,8.7-2.7,17.4-6.1,25.5c-2.5,6-9.5,7.8-12.4,2.7c-2.7-4.8-6.4-4.9-10.7-5.4
	c-11.8-1.3-21.4-8.2-19.7-23c1-8.9,0.8-17.9,1.3-26.8c0.4-6.5-0.7-13,0.2-19.2c2-14.2-2-25.5-13-34.5c-1.2-1-2.6-2.8-4.3-2
	s-1.1,3-1.2,4.6c-0.4,9-1.2,17.9-5.2,26.1c-7.7,15.8-9.8,32.9-10.8,50c-0.4,6.9-0.6,14.1-1.8,20.5c-1.3,7.2-1.9,14.2-2.6,21.4
	c-0.5,4.1,0.3,8.2,2.2,11.9c6,12,15.1,20.6,27.9,25.1c1.4,0.6,2.6,1.5,3.5,2.7c4.4,5,10.3,8.5,16.9,9.8c2.3,0.5,4.6,0.2,5.7-1.8
	c2.9-5.5,6.9-10.6,8-17c0.7-3.2,2.2-6.3,4.3-8.8c1.7-2.5,4.8-3.8,7.8-3.1c3.2,0.5,4.5,2.8,5.3,5.8c0.5,2,0.6,4.3,2.7,5.7
	c5.1,3.4,10.1,7,15.3,10.1c5.9,3.4,12,7,19,2.5c4.8-3.1,10.1-6,14-10.1c10.8-11.6,17.3-25.3,17.6-41.6c0.1-4.6-1.9-7.6-6.6-8.5
	c-3.3-0.6-6.5-1.2-9.8-1.8c-10.9-1.8-16.4-8.4-15.6-18.6c0.9-11.8,2.2-23.5,1.2-35.5c-1.1-13.1-3.5-25.1-11.5-35.9
	C510.8,346.9,505.8,342,501,335.6L501,335.6z"/>
<path d="M276.6,512.8c-8,1.6-15.2-3.2-21.6-9.9c-2.6-2.6-5.7-4.7-9.1-6.2c-11.4-5.4-16.2-16.1-19.4-27.1c-3.6-12-6.8-24.3-7.7-36.7
	c-0.6-8.6-1.8-18,2.3-26.6c1.3-2.7,2.1-5.4,4.9-7c1.1-0.8,1.9-1.8,2.4-3c5.9-11,13.1-21.2,20.1-31.4c3.6-5,6.5-10.4,8.5-16.2
	c4.9-14.5,14.5-25.6,27.9-33.2c1.6-0.9,3.1-1.9,5-1.9c9.8,0.3,19.6-1.6,29.4-1c6.3,0.4,12.2,3,16.6,7.4c3,2.8,6.9,4.5,11,4.5
	c1.8,0.1,3.6,0.5,5.2,1.4c3.4,2.1,6.4,4.2,8.5-1.5c0.5-1.5,2.5-1.1,3.6-0.8c5.6,1.6,11.1-0.2,16.7-0.1c2.8,0,5.8,0.5,8.5-0.1
	c9.8-1.9,14.4,4.3,18.3,11.5c1.2,2,2.8,3.7,4.6,5.1c6,5.4,7.2,12.3,2,18.2c-8.9,10.4-16.7,21.9-27.8,30.2c-3.6,2.7-4,6.2-3.2,9.6
	c2.2,8.9,0.6,17.5-1.3,26c-3.9,17.5-9.6,34.4-18.2,50.3c-5.5,10.2-14.5,13.7-24.5,16c-4.6,1.1-8.2,3.3-12,6.1
	c-10.3,7.7-21.4,13.7-34.6,15.2C288.1,512.3,283.4,512.5,276.6,512.8z M225.1,424.4c0.1,4.6,0.4,9.3,1.1,13.9
	c1.7,11.7,3.8,23.2,8.2,34.1c2.6,6.5,5.2,13.6,12,17.1c5.8,3.2,11.1,7,16,11.5c3,2.6,6.1,5.2,10.3,5.5c15.9,1.3,31.2-1.1,44.1-10.5
	c9.3-6.8,19.8-11.8,31-14.7c3.2-0.9,6-2.9,7.7-5.8c3.4-5.1,6.4-10.5,9-16c3.4-7.6,5.4-15.6,8-23.4c3.7-11.2,6.4-22.5,5-34.5
	c-0.8-6.3-1.5-12.8,4.6-17.4c10.7-8,18.3-19,26.8-29c3.4-4,3-6.7-1-10.2c-2.5-2.2-4.5-4.8-6.1-7.7c-2.6-4.7-6.2-8.7-12.6-7.7
	c-9.7,1.6-20.2-2-29,5c-8.7-1.1-17.1-3.5-25.1-7c-0.3-0.1-0.4-0.6-0.6-0.8c-5.7-4.3-11.4-8.6-19.2-8.1c-7.6,0.5-15.3,0.6-22.9,1
	c-1.5,0.1-2.9,0.5-4.2,1.3c-13.2,7.9-22.6,18.8-26.4,33.9c-0.9,3.5-2.5,6.8-4.9,9.5c-2.3,2.8-4.5,5.8-6.4,8.8
	c-5.7,9.4-12.2,18.2-17.7,27.6c-2.5,4.3-6.9,7.6-7.3,13.1C225.3,417.5,225.2,420.9,225.1,424.4L225.1,424.4z"/>
<path d="M347.5,4.3c4.5,1.4,8.3,4.4,10.8,8.4c1.6,2.5,3.4,4.5,6.4,4.8c2,0.2,3.8,1.4,4.9,3.1c6,8.8,12.7,17.2,12.8,28.9
	c0.1,9,1.9,18,1.7,27.1s0.5,17.8,0.2,26.7c-0.5,14.6-3.2,28.9-5.7,43.3s-4.7,29-7.5,43.5c-2.3,11.8-3,23.7-4.5,35.6
	c-1.2,9.9-1.7,20-3.5,29.9c-1.2,6.7-3.5,13.2-4.9,19.9c-2.2,10.5-3.7,21.2-8.2,31.1c-1.3,3-2.6,6.4-6.8,6.1s-8.4-0.9-10-5.6
	c-0.8-2.3-2.7-2.5-4.4-3.4c-7.2-4.1-14.2-8.2-17.1-16.8c-2.4-7.2-1.3-14.1,1.1-21c2.2-6.4,3.8-12.9,3.3-19.8
	c-0.4-5.7,1.1-11.2,2.3-16.6c2.3-10.5,2.7-21.3,5.5-31.8c3.6-13.7,5.7-27.8,8.2-41.7c3.7-20.4,7.8-40.9,10.8-61.4
	c1.3-8.9,0.8-18.2,2.4-27.1c1.4-7.6,4.4-14.8,3.9-22.8c-0.2-2.8,0-5.6-1-8.3c-1.5-4.2-1.6-7.7,2.4-11.4c3.5-3.2,4.2-8,0.9-12.6
	C350.1,10.2,349.2,7.7,347.5,4.3z M378.8,73.7c-1-4-0.9-8.7-0.8-13.3c0.2-12.5-2.7-24-10.3-34.1c-2.6-3.5-7.8-5.3-9.6-2.6
	c-2.8,3.9-5.9,7.6-4.5,13.5c1.8,7.8,1.5,16-0.9,23.7c-1.4,4.5-2.1,9.1-2.3,13.7c-0.7,17.9-3.2,35.7-6.4,53.3
	c-4.8,26.8-10.2,53.5-16,80.2c-1.3,6.2-0.1,12.5-2.2,18.5c-1.5,4.3-1.9,8.7-2.6,13.1c-1.6,9.6-0.9,19.4-4.3,28.9
	c-5.7,16.1,0.5,23.5,13.5,30c2.9,1.4,5.5,2.6,7.1,5.8c1.1,2.3,3.1,3.1,4.5-0.1c0.8-1.7,1.4-3.4,2.2-5c4.5-10.3,4.5-21.6,7.9-32.2
	c1.3-4.1,2.2-8.3,3.1-12.5c3.7-16.4,3.6-33.2,5.6-49.7c2.2-18.3,6.2-36.2,9-54.3c3.1-20.1,7.5-40.1,6.4-60.7
	C378,84.6,377.6,79.4,378.8,73.7z"/>
<path d="M268.9,126.4c14.6,2.6,28.2-2.1,41.9-5.7c4-1,6.8-0.2,9.2,3.4c9,13.2,9,13.1-0.2,26.4c-3.3,4.7-6.4,9.4-11.1,13
	c-6.8,5.3-6.7,13.8-8.6,21.3c-3,11.8-1,24-3.7,35.8c-1.1,4.9-3.2,9.5-4.2,14.5c-1.6,8.2-1.2,16.7-3.9,24.7
	c-1.2,3.7-2.7,7.3-4.1,10.9c-2.5,6.2-3.2,12.8-5.6,19.1s-7.7,9.6-11.1,14.7c-1.4,2-4.5,1.7-6.4,0.5c-9.7-6.5-19.4-5.8-29.6-1.2
	c-9.6,4.3-19.8,5.8-30.2,3.6c-5.9-1.3-11.1-4.8-16.3-7.8c-5.8-3.3-4.6-10.1-6.6-15.3c-5.4-13.5-4.2-27.5-1-41.2
	c3.8-16.2,7.1-32.6,12.6-48.1c5.6-15.7,12.2-31.4,22-45.1c4.8-6.7,9.7-13.9,17-18.6c2.8-1.7,5.9-2.9,9.1-3.7c3.6-1,10.7,4.4,11,8.1
	c0.4,4.9,4.8,6.9,7.9,9.6c1.4,1.2,4.8-1.9,4.2-4c-0.8-2.9-1.9-5.8-5.1-6.7c-1.8-0.5-3.1-1.1-3-3.1s2-3.1,3.6-3.7
	C260.6,126.8,264.8,126.3,268.9,126.4z M180.9,266c-0.9,8.1,3.7,17,6.4,26.4c0.3,1.1,1.1,2.1,2.1,2.6c4.9,1.6,8.6,5.3,13.6,6.7
	c9.8,2.6,19.1-0.2,27.5-3.8c10.5-4.4,20.1-4.4,30.1-0.1c2.7,1.2,4,0.5,5.9-1.5c5.6-6,7.4-13.6,10.3-20.9c7.4-18.3,8-38,13.5-56.7
	c3.3-11.2,0.9-23.1,3.7-34.5c2.2-8.8,2.2-18.7,10-24.8c6.3-4.9,9.5-11.7,14.3-17.6c2.9-3.6,1.5-6.8-0.7-10s-4.2-5-8.9-3.8
	c-11.2,2.9-22.4,6.2-34.2,5.5c-8-0.4-8-0.3-7.3,7.7c0.1,1,0.1,2,0,3c-0.6,5.9-9.4,10.3-14,6.7c-3.8-2.9-7.7-6.1-9.7-10.6
	c-3.3-7.6-6.1-6-11.7-3.2c-2.4,1.2-3.9,3.5-5.7,5.5c-8.9,10.1-16.6,20.9-21.1,33.8c-2.3,6.7-6.7,12.6-9,19.4
	c-4.6,13.6-7,27.9-11.3,41.6C182,246.7,180.7,256.3,180.9,266z"/>
<path class="st0" d="M72.3,130.8c-4,2.4-10.1,2.5-16.2,3.4c-4.1,0.6-7.3,0.1-9.9-3.6s-6.5-5.4-11-6c-6.3-0.8-10.6-5.2-14.8-9.5
	c-2.5-2.5-6.3-4.1-4-9.2c1.5-3.1,0.7-7.3,5-8.8c1.2-0.4,2.4-1.4,1.5-3.1s-3.6-3.2-2.3-5c1.5-2.2,4.1-4.8,6.5-5.1
	c9.5-1.5,14-8.7,18.6-15.7c2.5-3.8,6.6-4.2,10.2-5.5c3-0.9,5.8-2.4,8.2-4.3c6.7-5.8,15.4-6.6,23.5-8.7c15.5-4,31.5-6.1,47.2-8.9
	c17.5-3.1,35-5.9,52.6-8.4c10-1.4,20.2-1.3,30.3-2.8c9.2-1.3,18.5-1.8,27.8-2.5c14.2-1.1,26.8-7.5,40-11.8
	c6.8-2.1,13.5-4.8,19.7-8.3c2-1.2,4.4-1.8,6.7-1.5c2.2,0.3,4.1,1.7,5,3.8c0.9,1.9-1,3-2.1,4.2c-13,13.6-27.8,25.1-42.1,37.2
	c-3.7,3.1-7.3,6.3-9.5,10.8c-1.3,2.7-2.7,5.1-5.3,7c-1.6,1.1-3.3,3.5-3.3,5.3c0,8-6.8,13.1-8.1,20.5c-0.4,1.5-1.4,2.7-2.8,3.4
	c-17,9.5-33.2,20.6-52.4,25.7c-10.4,2.8-21.2,3.7-31.6,6.1c-7.9,1.8-15.7,3.4-18.7,12.5c-1.2,3.3-1.3,6.9-0.3,10.2
	c4.1,12.4,3.2,24.9,0.6,37.3c-3.3,16-7.5,31.9-11,47.8c-0.9,4-0.5,8.3,0,12.4c1.2,9.5,1,18.8-2.8,27.8c-2.7,6.2-2.1,13-3.5,19.5
	c-0.9,4-2.1,8-3,12c-0.4,2-1.4,2.6-3,1.4c-5.3-4.2-12.1-6.3-16.4-11.9c-1.6-2-3.2-3.9-2.1-6.7c1.4-3.8,0.3-7.1-1.5-10.5
	c-3.6-6.5-3.8-12.4-0.1-19.5c4-7.9,5.6-17.2,1.7-25.9c-1.9-4.2-2.8-8.8-2.4-13.4c0.4-5.3-0.3-10.1-3.7-14.6c-3.2-4.2-1.5-9.4-1-14.1
	c0.3-3,0.8-5.9-0.4-8.8c-0.9-2.1-0.4-3.9,0.5-5.7c4.2-9.4,5.7-19.2,5.5-29.4c-0.2-9.3-5.4-16-14.6-17.2
	C80.4,132.3,77.5,130.2,72.3,130.8z"/>
<path class="st0" d="M226.6,350c0.1,7.1-1.5,11-5,15c-9.7,11.3-18.8,23-26.1,36.1c-1.6,3.1-3.8,5.9-6.4,8.2
	c-10.9,9.4-19.6,20.6-27.4,32.5s-18.1,21.6-25,33.9c-5.4,9.6-13,17.5-19.3,26.4c-9,12.7-17.4,25.6-25.9,38.6
	c-3.7,5.8-10.6,8.8-13.3,15.4c-2.5,6.2-8.2,8.9-13,12.6c-0.8,0.6-1.7,0.9-2.7,1c-8.7,0.5-17.1-11.1-13.2-18.7
	c3.9-7.6,6.4-15.8,7.6-24.3c1.3-8.9,6.2-17.4,10.3-25.7c10.8-21.6,24.3-41.5,38.4-61c1.8-2.4,3.6-4.8,5.2-7.3
	c4.3-6.8,3.4-11.6-3.4-16c-7.6-4.9-14.9-10-21.1-16.5c-9.1-9.5-16.5-20.3-24.8-30.5c-3.7-4.5-7.3-9.1-10.6-13.8
	c-4.9-6.6-6.7-15-5-23.1c0.9-4.8,1.6-10.1-1.3-14.6c-2.5-4-1.7-8.3-2.1-12.5c-0.3-2.7,1.6-2.2,2.9-1.8c9.2,2.9,18,6.4,25.6,12.8
	c17.2,14.6,31.4,32.1,46.9,48.3c6.2,6.5,12.8,12.5,17.8,20.1c4.3,6.3,9.4,6.5,14.3,0.6c11.2-13.5,23.4-26.2,35.3-39.2
	c7.2-7.9,15.4-14.7,23.1-22c4.8-4.5,6.2-3.9,8.6,2.4c1.4,3.9,3.3,7.6,5.5,11.1C225.1,342.2,226.8,346.9,226.6,350z"/>
<path class="st0" d="M539.7,545.8c-8,1.8-16.3,2.5-24.5,2.1c-7.8-0.5-15.9-1.1-22.3,5.5c-4.9,5-12,3.2-17.9,5.1
	c-12.2,4-25.1,4-37.4,7.5c-7.5,2.1-14.1,6.4-21.1,9.7c-4.5,2.2-8.7,4.6-13.9,5.1c-5.9,0.6-10.6,4.6-16.1,6.3c-9.2,3-18.7,4.3-28.4,4
	c-4.7-0.2-9.6,0.7-14.3,1.7c-4.3,0.9-8.2,0.1-12.2-1.1c-5.3-1.7-11-1.2-16-3.2c-10.9-4.4-22.5-5-33.7-7.6
	c-13.7-3.2-27.4-5.9-41.1-8.9c-16.5-3.6-33.1-1.9-49.6,2.7c-9.6,2.6-19.7,3.1-29.5,1.7c-8-1.1-16.1-1.6-24.1-1.6
	c-9.8,0.1-19.2-3.2-29.6-2.1c4.1-7.6,6.7-15.3,14.7-18.8c1.2-0.7,2.1-1.6,2.8-2.8c21-27.8,49.8-34.7,82.6-31.5
	c15.1,1.4,30.1,3.1,45.2,4.1c18.9,1.3,37.1,6.7,55.6,10c13.3,2.4,26.1,7.6,39.8,8c10.5,0.4,20.8-1.5,31.2-2.5
	c17.2-1.7,34.3-4.3,51.6-4.5c9.1-0.1,18.2-2,27.4-0.9c13.1,1.6,26.4,0.1,39.5,4.2c8.3,2.6,17.8,1.5,26.6,3.6
	C529.6,542.7,534.5,542.9,539.7,545.8z"/>
<path class="st0" d="M461.2,106.6c1.8,0,3.7-0.1,5.5,0c2.2,0.1,4.2,1,4.5,3.2c0.8,5.5,4.5,9.6,6.4,14.5c1.4,3.5,4,5.4,7.7,5.1
	s6.6-2.4,7.1-6.5c1-8.7,2.3-17.4,2.8-26.1c0.8-13.3,0-26.7,3.2-39.7c2.1-8.5,5.8-16.6,7.3-25.3c0.5-3,1-5.9,1.7-8.8
	c0.4-1.5,0.3-3.7,2-4.2s2.8,1.5,3.9,2.5c10.6,9.8,16,22,17.7,36.2c0.3,3.8,1,7.6,2,11.3c3.5,10.5-0.2,20.8-0.5,31.1
	c-0.2,5.8,0.8,11.5,0.5,17.3c-0.3,6.1-0.7,12.2-1.6,18.3c-0.9,5.7,0.9,11.2,1.1,16.9c0.1,2.1,0.9,4.4,0.4,6.4
	c-2.2,9.4,0.9,18.7,0.2,27.9c-0.9,11.8-1.2,23.6-2.1,35.3c-0.7,8.8-3.1,17.6-5,26.3c-0.9,4.1-1.3,8.1-0.1,12.3
	c0.6,2.9,0.7,6,0.3,8.9c-1.2,10.9-1.7,21.8-4.2,32.5c-2.4,9.8-8.6,14.6-16.6,12.6c-6-1.5-9.8-6.6-13-11.6c-3.3-5.2-8.5-8.2-13-12
	c-1.7-1.5-4.5-1.5-7.1-0.6c-5.4,2-11.3,2.7-16.5,5.4c-2.9,1.4-5.9,0.9-8.8,1c-7.2,0.3-13.2,4-19.2,7.1c-4.7,2.4-10,2.2-13.4,0.2
	c-9.9-6.1-20.9-12-24.4-24.2c-1.9-6.7-3.5-13.4-6.5-19.6c-0.1-0.3,0-0.8-0.2-1c-7.7-9.5-3.7-19.9-1.3-29.4
	c4.6-18.3,11.7-35.8,22.9-51.3c4.7-6.6,8.2-14,10.3-21.9c3.7-13.3,10-24.8,20.5-33.9c2.4-2.1,4.6-4.4,6.5-6.8
	C447.8,108.6,452,106.5,461.2,106.6z M491.4,173.8c0.6-4.4-1.2-11-1.2-17.6c0-5.3-4.5-8.1-9.7-6.9c-3.3,0.7-6.2,2.5-8.3,5.1
	c-3.3,4.1-7.3,6-12.6,5.2c-1.5-0.2-3-0.2-4.5,0.1c-5.5,1-11.5,0.9-15.5,5.5c-4.5,5.5-9.6,10.6-15,15.2c-4.5,3.5-7.2,8.9-7.4,14.6
	c-0.5,7.2,0.7,14.2,1.4,21.4c1.2,13.6,11.7,20.5,26,17.8c8.8-1.6,17.6-4.3,26.8-3.4c10.1,0.9,16.1-5.3,16.5-14
	C488.6,203.1,491.3,189.7,491.4,173.8z"/>
<path class="st0" d="M501,335.7c4.8,6.3,9.7,11.3,14,17c8,10.8,10.5,22.8,11.5,35.9c1,12-0.3,23.7-1.2,35.5
	c-0.8,10.2,4.7,16.8,15.6,18.6c3.3,0.5,6.5,1.1,9.8,1.8c4.7,0.9,6.7,3.9,6.6,8.5c-0.3,16.2-6.8,29.9-17.6,41.6
	c-3.8,4.1-9.2,7-14,10.1c-6.9,4.5-13.1,0.9-19-2.5c-5.3-3.1-10.2-6.8-15.3-10.1c-2.1-1.4-2.2-3.7-2.7-5.7c-0.8-2.9-2.1-5.2-5.3-5.8
	c-3-0.7-6.1,0.6-7.8,3.1c-2.1,2.6-3.6,5.6-4.3,8.8c-1.2,6.4-5.1,11.5-8,17c-1.1,2.1-3.3,2.4-5.7,1.8c-6.5-1.4-12.5-4.8-16.9-9.8
	c-0.9-1.2-2.1-2.1-3.5-2.7c-12.8-4.5-21.9-13.1-27.9-25.1c-1.9-3.6-2.7-7.8-2.2-11.9c0.7-7.2,1.3-14.2,2.6-21.4
	c1.2-6.5,1.3-13.7,1.8-20.5c1-17.2,3.2-34.2,10.8-50c4-8.2,4.8-17.1,5.2-26.1c0.1-1.6-0.4-3.8,1.2-4.6s3,1,4.3,2
	c11,9,15,20.4,13,34.5c-0.9,6.2,0.2,12.8-0.2,19.2c-0.5,8.9-0.3,17.9-1.3,26.8c-1.6,14.8,8,21.6,19.7,23c4.4,0.5,8,0.7,10.7,5.4
	c2.9,5.1,9.9,3.3,12.4-2.7c3.4-8.2,4.8-16.8,6.1-25.5c1.9-12.7,1.9-25.5,2.1-38.3c0.1-7.2,3.7-13.8,4.3-20.9
	C500.4,354,501.5,345.4,501,335.7z"/>
<path class="st0" d="M225.1,424.4c0.2-3.5,0.3-7,0.5-10.5c0.3-5.5,4.7-8.8,7.3-13.1c5.5-9.5,12-18.3,17.7-27.6
	c1.9-3.1,4.1-6,6.4-8.8c2.3-2.8,4-6,4.9-9.5c3.8-15.1,13.2-26,26.4-33.9c1.3-0.7,2.7-1.2,4.2-1.3c7.6-0.4,15.3-0.5,22.9-1
	c7.8-0.5,13.5,3.8,19.2,8.1c0.2,0.2,0.3,0.7,0.6,0.8c8,3.6,16.4,6,25.1,7c8.8-6.9,19.3-3.4,29-5c6.4-1,10,3,12.6,7.7
	c1.6,2.9,3.7,5.5,6.1,7.7c4,3.5,4.4,6.1,1,10.2c-8.5,10-16.1,21-26.8,29c-6.1,4.6-5.3,11.1-4.6,17.4c1.4,12-1.3,23.3-5,34.5
	c-2.6,7.8-4.6,15.8-8,23.4c-2.6,5.6-5.6,10.9-9,16c-1.7,2.9-4.5,4.9-7.7,5.8c-11.2,2.9-21.7,7.9-31,14.7
	c-13,9.5-28.3,11.8-44.1,10.5c-4.2-0.3-7.4-2.9-10.3-5.5c-4.9-4.5-10.2-8.3-16-11.5c-6.8-3.5-9.4-10.7-12-17.1
	c-4.4-10.9-6.5-22.5-8.2-34.1C225.5,433.7,225.2,429.1,225.1,424.4z M342.4,407.4c-0.5-2.9,0.3-5.4-0.7-7.8
	c-2.9-7-4.2-14.6-6.9-21.7c-3.9-10-6.9-15.7-19.4-14.5c-3.6,0.3-7.8,1.3-11.1-1.5c-3.1-2.6-6.6-2.8-10.3-2.4
	c-13.4,1.5-28.4,18-28.9,31.6c-0.2,6.1,1.7,11.8,2,17.8c0.4,10.4,5.4,16.8,15.3,20.2c10.9,3.7,22.1,5.4,33.4,7.4
	c5.5,1,11.2,0.4,15.7-4.2C338.1,425.7,342,416.8,342.4,407.4L342.4,407.4z"/>
<path class="st0" d="M378.8,73.7c-1.2,5.7-0.8,10.9-0.5,16c1.1,20.6-3.3,40.5-6.4,60.7c-2.8,18.1-6.8,36.1-9,54.3
	c-2,16.6-1.9,33.4-5.6,49.7c-0.9,4.2-1.8,8.4-3.1,12.5c-3.4,10.6-3.4,21.9-7.9,32.2c-0.7,1.7-1.4,3.4-2.2,5
	c-1.4,3.2-3.4,2.4-4.5,0.1c-1.5-3.2-4.2-4.3-7.1-5.8c-13.1-6.5-19.2-13.8-13.5-30c3.4-9.5,2.6-19.3,4.3-28.9
	c0.7-4.4,1.1-8.8,2.6-13.1c2.1-5.9,0.9-12.3,2.2-18.5c5.7-26.6,11.1-53.3,16-80.2c3.1-17.6,5.7-35.3,6.4-53.3
	c0.2-4.7,0.9-9.3,2.3-13.7c2.4-7.7,2.8-15.9,0.9-23.7c-1.4-5.9,1.7-9.6,4.5-13.5c1.8-2.6,7-0.9,9.6,2.6
	c7.6,10.1,10.5,21.6,10.3,34.1C377.9,65.1,377.9,69.7,378.8,73.7z"/>
<path class="st0" d="M180.9,266c-0.2-9.7,1.1-19.3,3.9-28.5c4.3-13.8,6.7-28,11.3-41.6c2.3-6.8,6.6-12.7,9-19.4
	c4.5-12.9,12.3-23.7,21.1-33.8c1.8-2,3.2-4.3,5.7-5.5c5.6-2.8,8.3-4.4,11.7,3.2c2,4.5,5.9,7.7,9.7,10.6c4.6,3.6,13.4-0.7,14-6.7
	c0.1-1,0.1-2,0-3c-0.6-8-0.6-8.2,7.3-7.7c11.8,0.6,23-2.6,34.2-5.5c4.7-1.2,6.7,0.7,8.9,3.8s3.7,6.4,0.7,10
	c-4.7,5.9-8,12.7-14.3,17.6c-7.8,6-7.8,16-10,24.8c-2.8,11.4-0.4,23.4-3.7,34.5c-5.5,18.7-6.2,38.4-13.5,56.7
	c-3,7.3-4.7,14.9-10.3,20.9c-1.9,2-3.2,2.7-5.9,1.5c-10-4.3-19.6-4.4-30.1,0.1c-8.4,3.6-17.7,6.4-27.5,3.8c-5-1.4-8.7-5.1-13.6-6.7
	c-1-0.5-1.8-1.5-2.1-2.6C184.6,283.1,180.1,274.1,180.9,266z M245.8,176.3c-15.1-0.1-23.4,5.9-27.8,19.8c-0.9,2.5-2.1,4.9-3.5,7.1
	c-1.7,2.9-3.4,5.8-4,9c-1.1,5.2-3,10.2-5.5,14.9c-4,7.8-1.8,12.5,6.4,14.8c2.5,0.8,5.2,1,7.9,0.6c7.4-1.2,14.5,0,21.5,2.4
	c3.5,1.4,7.5,0.5,10.1-2.3c2-2,3.7-4.3,5-6.8c7.1-14,8.4-29.4,11.3-44.4c0.8-3.2,1.1-6.6,1.1-9.9c-0.3-7.1-5.9-10.7-12.5-7.8
	C252.5,175.1,249.3,177.1,245.8,176.3L245.8,176.3z"/>
<path d="M491.4,173.8c-0.1,15.9-2.8,29.3-3.5,42.9c-0.4,8.7-6.5,14.9-16.5,14c-9.1-0.9-18,1.8-26.8,3.4c-14.3,2.6-24.7-4.2-26-17.8
	c-0.6-7.1-1.8-14.2-1.4-21.4c0.2-5.7,2.9-11,7.4-14.6c5.4-4.6,10.5-9.7,15-15.2c4-4.7,10-4.6,15.5-5.5c1.5-0.3,3-0.3,4.5-0.1
	c5.3,0.8,9.3-1.1,12.6-5.2c2.1-2.6,5-4.4,8.3-5.1c5.2-1.3,9.7,1.6,9.7,6.9C490.2,162.8,492,169.4,491.4,173.8z M485.6,175
	c0.5-5.1-1.4-9.9-1.4-14.9c0-1.7,1.1-4.1-1.1-4.9c-1.9-0.7-3.9,0.4-5.1,2.1c-5.1,7.1-12,8.8-20.4,8.4c-6-0.3-11.8,1.4-16.1,6.8
	c-3.6,4.6-7.8,8.6-12.6,12c-2.4,1.7-4.1,4.3-4.7,7.2c-2.2,10-0.3,19.6,2.1,29.2c1.1,4.1,7.1,7.8,11.2,7.3c4.9-0.5,9.8-1.3,14.6-2
	c8.1-1.1,15.7-5,24.2-3.7c3,0.5,4.6-1.8,4.9-4.4C482.7,203.9,484.1,189.5,485.6,175z"/>
<path d="M342.4,407.5c-0.4,9.4-4.3,18.2-10.9,24.8c-4.5,4.5-10.2,5.1-15.7,4.2c-11.2-2-22.5-3.7-33.4-7.4
	c-9.9-3.4-14.9-9.7-15.3-20.2c-0.2-5.9-2.2-11.7-2-17.8c0.5-13.5,15.5-30.1,28.9-31.6c3.7-0.4,7.2-0.2,10.3,2.4
	c3.3,2.8,7.5,1.8,11.1,1.5c12.4-1.1,15.5,4.5,19.4,14.5c2.7,7,4,14.6,6.9,21.7C342.8,402.1,341.9,404.6,342.4,407.5z M271.3,395.2
	c0.6,3.7,2,9.5,2.5,15.3c0.5,6.4,4.1,9.5,9.5,11.8c8.2,3.5,16.9,4.5,25.5,6.2c4.1,0.8,8.2,2.4,12.6,1.7c9.1-1.4,17.4-18.5,14.6-27.8
	c-2.6-8.4-4.6-16.9-8-25.1c-2.1-5.1-5.1-9.2-11.9-8c-3.2,0.6-6.6,0-10,0.1c-1.9,0.1-3.7-0.2-4.9-1.9c-2-2.8-5-2.6-7.7-2.1
	C283.3,367.5,271.3,382.4,271.3,395.2z"/>
<path d="M268.3,181.5c-0.3-7.1-5.9-10.7-12.5-7.8c-3.3,1.4-6.5,3.4-10,2.7c-15.1-0.1-23.4,5.9-27.8,19.8c-0.9,2.5-2.1,4.9-3.5,7.1
	c-1.7,2.9-3.4,5.8-4,9c-1.1,5.2-3,10.2-5.5,14.9c-4,7.8-1.8,12.5,6.4,14.8c2.5,0.8,5.2,1,7.9,0.6c7.4-1.2,14.5,0,21.5,2.4
	c3.5,1.4,7.5,0.5,10.1-2.3c2-2,3.7-4.3,5-6.8c7.1-14,8.4-29.4,11.3-44.4C268,188.1,268.3,184.8,268.3,181.5z M262.2,183
	c-3.3,14.8-4.2,30-9.9,44.3c-1.4,3.3-3.1,6.5-5,9.6c-0.7,1.4-2.2,2.2-3.8,2c-7.6-3.4-15.6-3.4-23.7-3.2c-2.2,0.1-4.3,0.1-6.5,0
	c-3.1-0.3-4.7-1.1-3.1-5c5-12.7,10.7-25.2,15.5-38.1c2.7-7.2,10.6-9.6,18.1-9.8c5.1-0.2,9.8-0.5,14.3-3.1c0.8-0.5,1.9-1.8,3-0.3
	C261.9,180.4,262.4,181.7,262.2,183L262.2,183z"/>
</svg>
