<svg xmlns="http://www.w3.org/2000/svg" viewBox="0 0 567.65 602.21"><defs><style>.cls-1{fill:#fff;}</style></defs><title>logo_outline</title><g id="Layer_2" data-name="Layer 2"><g id="Layer_1-2" data-name="Layer 1"><path class="cls-1" d="M44.58,138.75c1.62,2.4,4.07,6,8,5.34a56.8,56.8,0,0,1,7.06-.61c3.62-.16,7.37-.32,10.77-1.55,5.46-2,10.23-1.15,15.29-.29,3.75.63,7.89,4.08,7.58,7.58-.21,2.47-.3,4.95-.38,7.35-.07,1.85-.14,3.77-.26,5.64-.44,6.5-3.09,12.42-5.76,17.92-.14.28-.3.57-.46.87-.9,1.64-2.41,4.38-.21,6.73,1.57,1.67,1.5,3.35,1.4,5.68,0,.37,0,.74,0,1.11a30.2,30.2,0,0,1-.66,4.75c-.74,3.94-1.59,8.41,1.48,12.16,4.29,5.25,4.2,11.07,4.1,17.24,0,1,0,2,0,3,0,2.2,0,4.7,1.71,7,2.63,3.52,2.4,7.34,1.82,12a22.14,22.14,0,0,1-2.57,7,23.32,23.32,0,0,0-2.58,6.86c-1.16,7.79-1.55,16,3.43,23.14a3.29,3.29,0,0,1,.53,3.59c-1.72,4.35-.72,8.66,3,13.17,4.15,5,9.5,8.27,14.67,11.45,2.77,1.7,5.63,3.46,8.22,5.43A7.27,7.27,0,0,0,125,323a4.19,4.19,0,0,0,1.37-.23c1.91-.66,3.25-2.65,4.13-6.09,1.31-5.12,2.26-10.38,3.18-15.47.88-4.86,1.79-9.89,3-14.71,2.65-10.56,5.39-21.48,4.82-32.89a41.06,41.06,0,0,0-.61-4.78c-.46-2.67-.89-5.2-.35-7.68,3-13.75,6.25-27.62,9.71-41.24,3.07-12.08,3.14-24.29,3.2-36.1,0-1.87,0-3.74,0-5.61a6.48,6.48,0,0,0-1.11-3.49c-1.93-3.36-2.27-6.6-1-9.35,1.37-2.94,4.57-5.12,8.56-5.84,8.08-1.45,18.74-3.4,29.5-5.51,11.14-2.18,22.39-6.44,36.48-13.81,3.59-1.88,7-4.1,10.33-6.25,4.6-3,9.35-6,14.47-8.14,4-1.63,5.43-5.09,6.58-8.49A54.08,54.08,0,0,1,260.66,90c2.06-4,4.19-8.16,4.67-13a1.84,1.84,0,0,1,.46-.94c3.77-2.07,5.32-5.47,6.83-8.75.3-.67.61-1.34.93-2a12.62,12.62,0,0,1,3.5-4.48,64.58,64.58,0,0,0,6.84-6.2,55,55,0,0,1,7.2-6.4c7.33-5.1,13.55-11.48,19.57-17.65a183.87,183.87,0,0,1,13.75-13.15c3.75-3.12,4.29-7.17,1.46-10.82C320.71-.09,313.3-1.81,306,2c-25.92,13.46-56,20.66-94.55,22.67-9.2.48-17.5,1-25.88,2.18-15.54,2.23-31,4.87-48.17,7.84L129.86,36c-13.86,2.37-28.19,4.83-42.18,7.85-1.09.24-2.19.46-3.29.68-6.83,1.39-13.9,2.82-19.67,7.45-4.53,3.63-9.61,5.39-14.43,6.74-3.59,1-6,2.69-7.3,5.15C39.67,70,35.48,75.93,27.32,77.56a5.34,5.34,0,0,0-2.94,1.59c-2.15,2.46-5,3.63-8.56,4.63C13,84.55,12,86,11.68,87.11s-.35,2.8,1.47,5l.35.42c.76.91,1.71,2,1.59,2.62,0,.14-.23.67-1.67,1.41a4.21,4.21,0,0,0-1.81,5c.91,2.32.55,2.87.55,2.87-.24.34-2,.28-2.82.25-.62,0-1.27-.05-1.89,0-.29,0-.59,0-.9,0a6.85,6.85,0,0,0-4.66,1.06L0,106.93l1.92,1.24c.9.58,1.81,1.07,2.69,1.54a10.59,10.59,0,0,1,3.76,2.66c3.4,5,7.91,8.72,12.28,12.35,1.21,1,2.43,2,3.61,3l.84.74c3,2.67,6.79,6,11.42,5.87C40.16,134.26,42.35,135.45,44.58,138.75Zm-17.2-41a3.47,3.47,0,0,0-.26-2.94A9.29,9.29,0,0,0,25.7,93c-.35-.39-1.07-1.19-1.05-1.46a.64.64,0,0,1,.06-.11c1.75-2.49,3.9-4.27,5.48-4.52C40,85.28,44.71,78.2,49.26,71.35l.56-.84c1.67-2.5,4.27-3.27,7-4.09.81-.24,1.65-.49,2.48-.78A27,27,0,0,0,68,61c5-4.33,11.21-5.71,17.74-7.18,1.7-.38,3.45-.78,5.16-1.22,11-2.89,22.54-4.77,33.65-6.59,4.42-.73,9-1.48,13.48-2.28,18.51-3.31,35.69-6.07,52.52-8.42,4.91-.68,10-1,14.88-1.34s10.28-.68,15.39-1.41c7.12-1,14.4-1.52,21.44-2,2.08-.15,4.17-.29,6.25-.45,10.4-.78,20-4.4,29.37-7.91,3.61-1.35,7.34-2.75,11-4a104.29,104.29,0,0,0,20-8.39,9.46,9.46,0,0,1,5.79-1.32,4.78,4.78,0,0,1,3.78,2.9c.18.4.14.64-1.1,1.79a9.64,9.64,0,0,0-.72.7C306.52,24.62,295,34.2,283.8,43.45c-3.05,2.53-6.1,5.06-9.12,7.61-3.86,3.25-7.51,6.55-9.87,11.23-1.34,2.66-2.54,4.83-4.81,6.43-1.95,1.37-4,4.21-3.94,6.58,0,4-1.93,7.33-4,10.81-1.72,2.89-3.49,5.89-4.13,9.42a3.86,3.86,0,0,1-2,2.34c-3.71,2.06-7.44,4.24-11,6.35-12.86,7.51-26.16,15.27-41,19.21-5.67,1.51-11.58,2.47-17.29,3.41-4.7.76-9.56,1.56-14.31,2.65l-.64.15c-7.86,1.81-16,3.68-19.17,13.37a17.38,17.38,0,0,0-.27,11.15c3.42,10.43,3.61,22,.58,36.52-1.88,9-4,18.13-6.14,26.95-1.62,6.83-3.3,13.89-4.84,20.86-1,4.36-.49,9,0,13,1.4,10.86.53,19.45-2.74,27-1.76,4.07-2.18,8.35-2.58,12.48a62.15,62.15,0,0,1-1,7.29c-.43,2-1,4-1.48,5.94s-1.07,4-1.51,6.08a4.5,4.5,0,0,1-.24.77,2.69,2.69,0,0,1-.36-.25,54.8,54.8,0,0,0-6.57-4.25c-3.65-2.11-7.1-4.11-9.6-7.4l-.35-.46c-1.5-1.94-2.25-3-1.59-4.79,1.76-4.69.06-8.73-1.61-11.73-3.43-6.14-3.46-11.56-.09-18.13,4.79-9.34,5.39-19,1.68-27.21a25,25,0,0,1-2.22-12.72c.5-6.48-.73-11.28-4-15.57-2.2-2.88-1.64-6.44-1-10.21.14-.94.29-1.87.39-2.78l.1-.87c.34-2.83.68-5.75-.58-8.69-.64-1.49-.31-2.82.44-4.49,4-9,5.89-18.82,5.67-30.08-.21-10.27-6.3-17.42-15.9-18.65a18.82,18.82,0,0,1-3.14-.8,20.48,20.48,0,0,0-6.57-1.24,16.44,16.44,0,0,0-2,.13l-.33,0-.29.17c-2.75,1.71-6.92,2.16-11.34,2.64-1.4.15-2.81.31-4.23.51-3.68.51-6.26.19-8.48-2.94-2.61-3.68-6.67-5.91-12.06-6.63-5.7-.75-9.56-4.67-13.65-8.82l-.25-.24c-.52-.53-1.07-1-1.61-1.46-2.17-1.85-3.48-3-2.05-6a16.1,16.1,0,0,0,1-3.31c.58-2.51,1-4,3.16-4.75A4.15,4.15,0,0,0,27.38,97.77Z"/><path class="cls-1" d="M108.17,536.67c5.91-8.95,12-18.21,18.34-27.11,2.47-3.48,5.16-6.91,7.76-10.23a174,174,0,0,0,12.1-16.78c5.06-8.33,11.15-16.21,17-23.83,4.67-6.05,9.5-12.3,13.84-18.79,5.16-7.73,9.79-13.32,14.55-17.59,5.26-4.72,10.72-9.89,14.49-16.64a167.66,167.66,0,0,1,23.5-32.34c7-7.56,9.16-15.95,6.9-27.21-1.16-5.79-3.91-10.92-6.58-15.87a66.88,66.88,0,0,1-5.64-12.43c-1.1-3.68-5.48-4.15-6.92-4.3-5.33-.58-8.72,2.54-11.71,5.29L204.53,320c-8.47,7.46-16.43,15.65-24.13,23.58-3.21,3.3-6.53,6.72-9.84,10-4.62,4.63-8.84,9.71-12.92,14.62-3.8,4.58-7.72,9.3-12,13.67l-.83-1.24a35,35,0,0,0-4.28-5.59C132.4,367,124.5,358.33,116.86,350c-10.86-11.9-22.09-24.21-34.33-35.27-10.31-9.33-22.65-14.24-34.58-19-2.91-1.15-5.91-2.35-8.83-3.59-1.16-.49-2.65-.95-3.95-.17s-1.67,2.51-1.79,3.9c-.34,3.94.77,7.53,1.85,11s2.16,7,1.61,10.6a2.6,2.6,0,0,0,.92,2.12,2.4,2.4,0,0,1,.22.24c2.82,3.57,3.52,8,2.25,14.48-1.91,9.65,0,18.61,5.9,27.41,2.46,3.68,5.27,7.17,8,10.54,1.49,1.84,3,3.74,4.47,5.64,5.73,7.53,11.74,15,17.56,22.29l1.73,2.17c6.57,8.21,15.13,15.38,26.17,21.9,1.83,1.08,2.79,2,2.94,2.86s-.36,1.85-1.47,3.19c-1.75,2.12-3.32,4.41-4.83,6.63-.71,1-1.41,2.05-2.14,3.07C81.64,463.67,64.43,489.74,53,519.84c-.17.46-.36.92-.55,1.39-.95,2.37-2,5-1.78,7.65.56,6-1.77,10.94-4.88,16.72-6.58,12.25-4.51,21.55,6.51,29.26,3.75,2.62,8,5.09,12.51,5.09a11.87,11.87,0,0,0,4.55-.91c7.74-3.23,12.83-7,15.58-11.69,3.67-6.2,8.18-11.38,13.83-17.25a22.76,22.76,0,0,0,2.68-3.28C103.7,543.45,105.93,540.06,108.17,536.67Zm2.7-119.79c-7.13-4.59-14.59-9.75-20.87-16.29a235.87,235.87,0,0,1-16.15-19.48c-2.77-3.6-5.63-7.32-8.57-10.89-4.08-5-7.52-9.47-10.52-13.75A27.52,27.52,0,0,1,50,334.54c1-5.21,1.69-10.71-1.46-15.65-1.61-2.53-1.67-5.3-1.73-8.23,0-1.18-.05-2.39-.18-3.61a4.23,4.23,0,0,1,0-.45,6,6,0,0,1,1,.24c10,3.19,18.06,6.54,25.09,12.51,12,10.19,22.76,22,33.15,33.44,4.43,4.87,9,9.91,13.63,14.76,1.34,1.41,2.7,2.8,4.06,4.18,4.77,4.87,9.7,9.9,13.59,15.69,2.38,3.55,5.08,5.42,8,5.57s5.9-1.47,8.68-4.82c8.68-10.45,18.07-20.58,27.15-30.38,2.7-2.92,5.4-5.83,8.09-8.76,4.94-5.38,10.42-10.39,15.72-15.23,2.39-2.18,4.87-4.44,7.27-6.72s3.41-2.59,3.72-2.52,1.14.92,2.42,4.32a56.78,56.78,0,0,0,5.62,11.42c2.63,4,4.18,8.35,3.95,11.05v.15c.14,7.1-1.58,10.53-4.61,14.05-11.86,13.8-19.95,25-26.24,36.39a28.84,28.84,0,0,1-6.07,7.79c-9.76,8.43-18.55,18.86-27.66,32.82a175.61,175.61,0,0,1-11.08,14.64c-4.93,6.06-10,12.34-14,19.35-3.35,6-7.69,11.4-11.89,16.65-2.47,3.09-5,6.28-7.37,9.58-8.38,11.74-16.35,24-24.07,35.83L93,541.44a32.28,32.28,0,0,1-5.71,6.08c-3,2.68-6,5.45-7.69,9.55-1.76,4.42-5.38,6.95-9.2,9.63-1.08.76-2.2,1.54-3.27,2.37a3.84,3.84,0,0,1-1.91.71c-3.68.2-7.73-2.22-10.34-6.2-2.35-3.6-2.88-7.47-1.41-10.35a78.85,78.85,0,0,0,7.74-24.75c1.12-7.35,4.78-14.59,8.33-21.58l1.85-3.68c11.17-22.55,25.55-43.42,38.15-60.86l1.38-1.88c1.31-1.77,2.66-3.61,3.86-5.53C119.51,427.39,118.27,421.65,110.87,416.88Z"/><path class="cls-1" d="M549.38,540.87c-3.71-2.64-7.93-3.38-12-4.09l-4-.7c-17.8-3.15-36.21-6.4-54.54-8a258.58,258.58,0,0,0-42.62-.26c-4.26.33-8.59.62-12.78.91-10.42.7-21.19,1.43-31.75,2.86l-4,.54c-5.89.82-12,1.67-18,2.08-2.12.14-4.25.37-6.31.6-5.8.62-11.27,1.22-17,.15a48.32,48.32,0,0,1-6.92-2.06,42.38,42.38,0,0,0-8.09-2.29c-11.83-1.75-24.4-3.77-36.69-7.57-7.88-2.43-16.37-3.45-23.87-4.35-7.2-.87-14.54-1.48-21.64-2.08-4.23-.36-8.61-.72-12.9-1.14-9.13-.88-18.4-1.84-27.38-2.77l-12-1.24h0a24.2,24.2,0,0,0-6.37.58c-1.13.21-2.19.4-3.26.5-21.57,2.06-40.44,10-56.08,23.67l-.56.48c-2.74,2.39-5.59,4.86-7.24,8.51a12.39,12.39,0,0,1-6.1,6.08c-4.59,2.29-7.3,5.06-8.52,8.71a17.68,17.68,0,0,1-4.87,7.6c-1.42,1.3-4.74,4.35-2.82,7.64l.1.18c1.56,2.67,3.68,6.35,8.26,6.16,9.67-.35,19.44.84,28.88,2,3.69.45,7.5.91,11.26,1.28a35.67,35.67,0,0,0,6.72-.19c2.86-.26,5.56-.51,8,.24,10.8,3.27,21.18,1,31.22-1.3l.82-.18c14-3.14,27.22-6.1,41-3.49,13,2.46,26.93,5.56,43.81,9.77a53.73,53.73,0,0,0,9.07,1.2c3.92.29,7.63.57,11.12,2,6.52,2.6,13.39,4,20,5.3,4.66.94,9.49,1.9,14.09,3.28a20,20,0,0,0,5.69.78,24.37,24.37,0,0,0,3.88-.32,119.26,119.26,0,0,1,15.18-1.2,133,133,0,0,0,14.4-1.05c1.18-.18,2.37-.34,3.55-.5,7.76-1.06,15.78-2.15,22.76-7a12.81,12.81,0,0,1,6.57-2.37c5.39-.24,9.78-2.6,14-4.89l.76-.41c1.06-.56,2.12-1.14,3.17-1.71,5.54-3,11.27-6.15,17.2-7.94a90.57,90.57,0,0,1,20.92-3.71,50.9,50.9,0,0,0,11.64-2.52c4-1.2,7.79-2.34,11.84-2.45,6.92-.19,12.49-2.84,16.57-7.89.62-.77,2.2-1,3.5-1.12A109.15,109.15,0,0,1,519.3,557a106.48,106.48,0,0,0,12.86-.18c4.59-.43,9.09-1.25,13.45-2l1.22-.22c3.52-.64,4.31-3.41,4.89-5.43a14.48,14.48,0,0,1,.5-1.53C553.73,544,550.57,541.72,549.38,540.87Zm-12,5.88A82.9,82.9,0,0,1,518,547.84l-.49,0c-8-.47-16.25-1-23,6-2.74,2.83-6.42,3.19-10.32,3.56a31.18,31.18,0,0,0-6.92,1.2c-6.44,2.13-13.28,3.13-19.9,4.1A137,137,0,0,0,440,566c-5.42,1.52-10.41,4.15-15.23,6.7-2,1.05-4.05,2.14-6.1,3.12l-1.93.94c-3.74,1.85-7.28,3.59-11.43,4-3.78.39-7.05,2-10.22,3.65a40,40,0,0,1-6.2,2.74A81.49,81.49,0,0,1,361,591.05c-4.92-.2-9.95.74-14.67,1.72-4.22.88-8.14-.06-11.43-1.09a41.55,41.55,0,0,0-7.69-1.42,32.31,32.31,0,0,1-8.23-1.72c-7.23-2.94-14.81-4.21-22.14-5.43-3.87-.65-7.88-1.32-11.74-2.23-8.44-2-17.06-3.79-25.4-5.53-5.17-1.09-10.52-2.21-15.76-3.35a86.32,86.32,0,0,0-18.69-2,118,118,0,0,0-31.64,4.69,71.92,71.92,0,0,1-28.9,1.65,171.49,171.49,0,0,0-24.34-1.63A83,83,0,0,1,128,573.58a81.15,81.15,0,0,0-14.62-1.17c.23-.44.45-.89.67-1.33,3.14-6.28,5.85-11.69,12.11-14.41a9.24,9.24,0,0,0,3.34-3.13l.08-.12C148.13,528.78,174,519,210.82,522.49l11.38,1.12c11.08,1.11,22.53,2.25,33.83,3,12.46.86,24.82,3.57,36.77,6.18,6.1,1.34,12.4,2.72,18.66,3.84,4.91.88,9.84,2.17,14.62,3.42,8.17,2.14,16.62,4.35,25.37,4.65,7.73.27,15.44-.67,22.89-1.58,2.8-.34,5.7-.69,8.55-1,4.69-.47,9.45-1,14.05-1.52,12.24-1.38,24.89-2.81,37.39-3,3.41-.06,6.84-.35,10.15-.62,5.6-.48,11.4-1,17-.29,4.66.56,9.39.74,14,.92,8.32.32,16.91.65,25.21,3.28,4.69,1.48,9.74,1.82,14.62,2.15a76.88,76.88,0,0,1,12,1.47c1.24.29,2.51.53,3.74.75A51,51,0,0,1,537.34,546.75Z"/><path class="cls-1" d="M377.71,223.55a3.65,3.65,0,0,0-.2,1.38c0,.13,0,.26,0,.39-.31,1.87-.59,3.75-.87,5.64-.64,4.33-1.3,8.81-2.36,13.08-1.3,5.24-.63,9.91,2.23,15.61l.15.29c3.07,6.14,6,11.93,7.19,18.74a34.94,34.94,0,0,0,11.64,20.83,78.4,78.4,0,0,0,6.78,5.13,75,75,0,0,1,6.62,5c5.15,4.54,16.85,5.67,22.81,3.42a66.7,66.7,0,0,0,6.61-3.1c3.74-1.93,7.28-3.75,11.32-4.25a24.74,24.74,0,0,1,3.87-.06c2.85.09,6.08.2,9-1.76,2-1.36,4.37-1.87,6.87-2.41,2.74-.58,5.56-1.19,8.08-3a1.36,1.36,0,0,1,.3,0c1.06.83,2.26,1.6,3.41,2.36,2.58,1.67,5.24,3.41,5.92,5.42,1.27,3.83,3.82,6,6.29,8.16a22,22,0,0,1,3.95,4c1.83,2.65,5.79,4.67,10.09,5.14a36.52,36.52,0,0,0,3.79.21c12.63,0,17.32-7.82,20.2-15.68,1.93-5.28,2.39-10.78,2.83-16.1a81.4,81.4,0,0,1,1.37-10.79c1.44-6.65,1.09-13.28.75-19.69-.06-1-.15-2-.25-3a26.39,26.39,0,0,1,0-7.32c.57-3.18,1.23-6.4,1.85-9.52,1.76-8.72,3.58-17.73,4-27,.1-2.35.11-4.74.13-7.05,0-5.57.09-11.34,1.31-16.89,1-4.72,1.74-9.7-.13-14.15-1.2-2.84-.86-5.42-.46-8.4l.15-1.16a66.85,66.85,0,0,0,.09-14.73c-.14-1.48-.36-3-.56-4.39-.61-4.18-1.17-8.12-.18-12.32,1.62-6.78,1.31-13.79,1-20.58-.07-1.77-.15-3.54-.19-5.31s-.13-3.55-.21-5.32c-.3-6.53-.58-12.7,1-18.89a15.51,15.51,0,0,0,.15-7c-1.36-6.69-2.53-12.7-3.57-18.36-.19-1.07-.39-2.14-.58-3.21-2.22-12.42-4.52-25.26-15.39-34.59a18,18,0,0,1-2.76-3.31,31.46,31.46,0,0,0-2.13-2.73C518.31,15,517.19,13.51,516,12a39.66,39.66,0,0,0-7.33-8l-2.05-1.55-.87,6.41c-2,14.92-3.94,29-9.77,42.36a29.44,29.44,0,0,0-2.42,9c-.85,9.53-1.62,19.23-2.37,28.61-.58,7.26-1.15,14.52-1.77,21.77-.11,1.23-.29,2.44-.48,3.72a37.06,37.06,0,0,0-.59,6.82s0,1.3-.85,1.49l-.1,0a26.23,26.23,0,0,0-2.94-6.26c-1.57-2.67-3-5.2-3-8.24a5.62,5.62,0,0,0-2.11-4.08c-.19-.2-.39-.39-.58-.6-3.87-4.29-8.69-4-12.94-3.76-1.2.07-2.33.13-3.44.11A28.75,28.75,0,0,0,441.05,109c-1.43,1.48-2.75,3.14-4,4.75a45.91,45.91,0,0,1-5.58,6.2c-9.83,8.54-16.7,19.9-21,34.76-1.77,6.13-4.21,13.23-8.85,19.44-10.73,14.37-17,31.18-23.12,47.44ZM534.87,91.2a96.73,96.73,0,0,0-1,10c-.09,2.8.09,5.6.26,8.3a77.19,77.19,0,0,1,.2,9c-.35,6.43-.72,12.22-1.62,18.14-.59,3.78-.08,7.47.41,11,.27,2,.56,4.1.63,6.13a19.92,19.92,0,0,0,.3,2.59,9.48,9.48,0,0,1,.16,3.43c-1.35,5.71-.8,11.36-.27,16.82a66.18,66.18,0,0,1,.46,11.36c-.42,5.6-.71,11.29-1,16.79-.31,6.07-.62,12.35-1.12,18.49a139.73,139.73,0,0,1-3.57,19.81c-.48,2.09-1,4.18-1.42,6.27a26.74,26.74,0,0,0-.11,13,23.37,23.37,0,0,1,.27,8.38c-.31,2.78-.57,5.61-.82,8.34-.74,7.93-1.5,16.13-3.38,24-1.21,5-3.46,8.65-6.53,10.49a10.36,10.36,0,0,1-8.21,1c-5.66-1.45-9.24-6.4-12.16-10.92-2.62-4.08-6.25-6.87-9.77-9.56-1.17-.91-2.39-1.84-3.53-2.79a7.19,7.19,0,0,0-4.69-1.56,11.28,11.28,0,0,0-3.91.74c-2.11.77-4.36,1.37-6.54,1.95a52.17,52.17,0,0,0-10.14,3.47c-1.83.92-3.85.9-6,.87-.75,0-1.49,0-2.23,0-6.48.26-11.91,3.12-17.16,5.9L429.74,304c-4,2.05-8.83,2.16-11.95.25l-1.91-1.16c-9.22-5.57-18.75-11.34-21.87-22.22-.34-1.19-.67-2.38-1-3.56a94.32,94.32,0,0,0-5.53-16.1,2.14,2.14,0,0,0-.44-1.45c-6.37-7.8-4.07-16.46-1.84-24.83.3-1.11.59-2.2.86-3.28,5-20.06,12.41-36.65,22.67-50.74a68.29,68.29,0,0,0,10.47-22.35c3.87-13.94,10.43-24.79,20.06-33.19a53.28,53.28,0,0,0,6.74-7c5.48-6.94,9.33-8.81,17.93-8.72h1.8c1.21,0,2.45,0,3.65,0s2.88.34,3.11,1.87c.53,3.66,2.22,6.69,3.86,9.63a42.93,42.93,0,0,1,2.58,5.17c1.63,4.23,5,6.44,9.23,6,4.81-.44,7.88-3.29,8.42-7.83q.38-3.17.78-6.33c.81-6.5,1.65-13.23,2-19.9.22-3.75.32-7.58.41-11.27.24-9.34.49-19,2.73-28.17.86-3.53,2-7.08,3.2-10.51a99.42,99.42,0,0,0,4.13-14.87c.48-2.86,1-5.81,1.71-8.68.1-.37.17-.79.24-1.21.22-1.28.38-1.84.8-2s.54,0,1.47,1.1a10.44,10.44,0,0,0,1,1.11c9.88,9.08,15.52,20.62,17.22,35.27l.08.66a53.77,53.77,0,0,0,2,10.91C536.7,77.43,535.81,84.12,534.87,91.2Z"/><path class="cls-1" d="M554.13,437.85c-2.54-.44-5.33-.88-8.27-1.31-9.68-1.42-10.6-5.4-10.14-9.49.5-4.56,1-9.45,1.5-14.41,1.61-16.91-.32-34.15-6.07-54.25A5.47,5.47,0,0,0,529.5,356a10.14,10.14,0,0,1-.74-.8c-2.15-2.93-4.54-5.73-6.84-8.44-4.63-5.44-9.42-11.07-12.37-17.76l-.11-.26c-.78-1.78-1.94-4.46-5.45-4.17s-6.16,2-7.21,4.69c-.88,2.3-2.09,5.44-1.21,8.63,1.45,5.23.79,10.38.1,15.84-.33,2.55-.67,5.2-.76,7.84a43.7,43.7,0,0,1-2.14,10.48,48.61,48.61,0,0,0-2.21,10.55c-.29,4.63-.44,9.33-.58,13.88-.26,8-.52,16.26-1.51,24.32-.87,7.09-2.21,15.29-5.41,23.38-2.91-5.26-8.07-5.78-13.18-5.79-5.75,0-10.19-1.64-12.83-4.69-2.24-2.59-3.1-6.18-2.5-10.39a143,143,0,0,0,1-19.64,136.1,136.1,0,0,1,1-19.54,9.57,9.57,0,0,0-.43-4,6.74,6.74,0,0,1-.34-3.11c1.83-9.31.87-17.89-2.84-25.52-3.94-8.09-10.47-13.83-16.28-18.59-2.44-2-4.67-2.81-6.81-2.51s-4,1.65-5.7,4.14c-1.59,2.3-1.71,4.75-1.69,7.49.07,12.92-2.23,22.86-7.23,31.27a23.57,23.57,0,0,0-2.64,6.75c-4,17.75-6,35.65-7.36,49.27a33,33,0,0,0,0,5.36c.18,2.95.36,5.74-.84,7.92-2.87,5.23-2.57,10.54-2.28,15.69.21,3.72.4,7.24-.57,10.64l-.11.4.11.41c4.19,15.3,14.47,27.22,31.42,36.45a5.38,5.38,0,0,0,2.13.55c.84.1,1.19.16,1.49.51,5.08,5.86,11.92,10.05,20.91,12.82a16.76,16.76,0,0,0,4.85.77,11.25,11.25,0,0,0,10.33-6.09c.7-1.32,1.41-2.62,2.13-3.92,1.68-3.07,3.43-6.25,4.88-9.58a21.17,21.17,0,0,0,1.2-4.39c.51-2.6,1-4.91,2.95-6.3.12.41.22.83.33,1.26.66,2.56,1.41,5.47,4.22,7.09,3.26,1.87,6.45,4.05,9.53,6.15,5.21,3.56,10.59,7.23,16.66,9.7a13.56,13.56,0,0,0,7.48,1.19c11.19-2,20.89-8.17,29.66-18.86,9.25-11.27,14.51-23.82,15.63-37.31C568.24,449.59,567.87,440.21,554.13,437.85Zm-61,50.77c-.09-.42-.18-.84-.29-1.26-.7-2.59-2.13-6.11-6.53-6.86a8.91,8.91,0,0,0-9.28,3.68,22.16,22.16,0,0,0-4.61,9.44c-.81,4.41-3,8.16-5.37,12.13-.84,1.44-1.72,2.93-2.52,4.44-.23.45-.94,1.79-4,1.07a29.17,29.17,0,0,1-16.07-9.36,9.79,9.79,0,0,0-4.16-3.13c-12-4.2-20.89-12.16-27.06-24.36a18.94,18.94,0,0,1-2-11c.13-1.32.26-2.64.38-4,.58-5.94,1.12-11.56,2.18-17.36a128.89,128.89,0,0,0,1.54-16.41c.08-1.45.15-2.89.24-4.31,1-16.27,3-33.53,10.7-49.48,3.88-8,4.94-16.45,5.34-26.67,0-.37,0-.75,0-1.15,0-1.36,0-2,.39-2.15a.46.46,0,0,1,.21-.05c.31,0,.74.31,1.63,1.14.27.25.54.5.8.71,10.34,8.46,14.41,19.31,12.42,33.17a64.45,64.45,0,0,0-.25,11.19c.1,2.69.21,5.47.05,8.17-.21,3.41-.31,6.87-.41,10.21-.16,5.42-.32,11-.93,16.49-1.54,13.74,6.34,22.94,21.06,24.61l.63.07c3.92.43,6.76.75,9,4.6a7,7,0,0,0,6.71,3.71c3.53-.22,6.83-2.8,8.41-6.57,3.33-8,4.71-16.11,6.16-25.87,1.77-11.85,1.91-23.93,2-35.61l0-2.9c.05-3.64,1.06-7.12,2.13-10.8a50.81,50.81,0,0,0,2.18-10c.15-1.83.32-3.65.49-5.49a169.61,169.61,0,0,0,1-17.05c1.45,1.76,2.89,3.44,4.3,5.08,2.43,2.81,4.72,5.47,6.85,8.34,8.29,11.11,10.3,23.45,11.24,35.13.84,10.4,0,20.8-.85,30.87l-.36,4.39c-.86,10.95,5.28,18.31,16.86,20.18,2.82.46,5.91,1,9.73,1.76s5.44,3,5.37,7c-.24,14.88-6,28.53-17.19,40.57-2.84,3.06-6.69,5.46-10.4,7.78-1.11.69-2.21,1.37-3.29,2.08-6.16,4-11.63.83-17.41-2.56-3.42-2-6.77-4.29-10-6.52-1.75-1.19-3.49-2.39-5.26-3.55C493.85,491.46,493.56,490.36,493.17,488.62Z"/><path class="cls-1" d="M390.21,391.28c8.31-6.27,14.86-14.35,21.19-22.17,2.21-2.73,4.51-5.56,6.83-8.25,5.5-6.39,4.67-14.18-2.19-20.35l-.48-.43a16.08,16.08,0,0,1-3.79-4.28c-3.82-7.06-8.82-14.42-19.92-12.25a23.93,23.93,0,0,1-5.71.14c-.82,0-1.65-.08-2.46-.1a54.94,54.94,0,0,0-6.07.38c-3.54.35-6.89.69-10.23-.25-3.9-1.1-5.09.85-5.42,1.74-.55,1.48-1.17,2.38-1.78,2.59-.91.32-2.51-.66-4.07-1.6l-.51-.3a12.73,12.73,0,0,0-5.86-1.64,14.72,14.72,0,0,1-10.08-4.11A27.83,27.83,0,0,0,322,312.59a114.54,114.54,0,0,0-15.87.48,130.56,130.56,0,0,1-13.57.56,9.8,9.8,0,0,0-5.26,1.76l-.5.29c-14,7.94-23.56,19.39-28.53,34A61.85,61.85,0,0,1,250,365.53l-1.5,2.17c-6.49,9.38-13.2,19.07-18.7,29.35a6.17,6.17,0,0,1-1.82,2.39c-2.84,1.58-3.95,4.05-5,6.43-.18.39-.36.79-.55,1.19-3.93,8.27-3.21,17.27-2.58,25.21.06.74.12,1.47.17,2.2.95,12.74,4.31,25.32,7.79,37,3.16,10.65,8.05,22.32,20.24,28a28.15,28.15,0,0,1,8.69,5.91c6.88,7.13,13.33,10.63,19.61,10.63a17,17,0,0,0,3.25-.31l1.44-.07c6-.25,10.33-.43,14.79-.94,11.86-1.34,23.08-6.25,35.32-15.45a30.3,30.3,0,0,1,11.42-5.84c9.72-2.29,19.53-5.9,25.42-16.77,8.11-14.95,14.11-31.53,18.35-50.68,1.95-8.84,3.52-17.52,1.29-26.65C386.72,395.86,387.55,393.29,390.21,391.28Zm-11.48,11.91c1.46,12.33-1.67,24.06-4.93,33.9-.78,2.34-1.51,4.72-2.22,7a141.54,141.54,0,0,1-5.73,16.26A123.37,123.37,0,0,1,357,476.24a11.44,11.44,0,0,1-6.83,5.15,92,92,0,0,0-31.51,15c-11.4,8.32-25.5,11.67-43.13,10.24-3.64-.3-6.44-2.51-9.47-5.16a83.93,83.93,0,0,0-16.31-11.67c-5.93-3.07-8.44-9.32-10.87-15.36l-.41-1c-4.43-10.93-6.51-22.7-8.1-33.79A106.11,106.11,0,0,1,229.31,426c.05-1.07.09-2.14.13-3.22.1-2.35.2-4.78.34-7.16.21-3.31,2.13-5.77,4.17-8.36a36.71,36.71,0,0,0,2.89-4.07c3-5.1,6.29-10.11,9.51-14.95,2.72-4.12,5.54-8.37,8.15-12.68a80.21,80.21,0,0,1,6.3-8.68,25.48,25.48,0,0,0,5.14-10.12c3.45-13.79,12.1-24.89,25.7-33a8.17,8.17,0,0,1,3.56-1.05c3.35-.18,6.78-.3,10.09-.43,4.21-.15,8.56-.31,12.85-.58,7.22-.48,12.5,3.48,18.07,7.69v0a2.18,2.18,0,0,0,1,1,88.61,88.61,0,0,0,25.49,7.16l.62.07.48-.38c5.48-4.32,11.73-4.26,18.35-4.19a59.74,59.74,0,0,0,10-.47c4.63-.76,7.83,1.25,11,6.94a29.34,29.34,0,0,0,6.45,8.07c3.46,3,3.63,4.75.79,8.1-2,2.38-4,4.84-5.95,7.23-6.18,7.63-12.57,15.52-20.6,21.54C377.1,389.56,378,396.76,378.73,403.19Z"/><path class="cls-1" d="M322.11,216.41c-.63,4.66-1.29,9.48-2.32,14.14-.16.71-.32,1.41-.49,2.13-1.09,4.78-2.23,9.73-1.83,14.88.55,7.06-1.3,13.67-3.18,19.2-2,5.83-3.89,13.6-1.08,22,3.1,9.31,10.89,13.73,17.76,17.62a14.08,14.08,0,0,0,1.43.68c1.27.54,1.9.84,2.26,1.9,2,5.93,7.82,6.36,11.31,6.61l.63,0c4.55,0,6.2-3.73,7.42-6.49l.23-.53c3.71-8.28,5.44-17.14,7.12-25.72q.56-2.85,1.14-5.7c.63-3.06,1.47-6.15,2.28-9.15.94-3.49,1.92-7.11,2.6-10.75,1.18-6.3,1.79-12.74,2.39-19,.34-3.61.7-7.33,1.16-11,.52-4.06.94-8.2,1.35-12.2.78-7.66,1.59-15.59,3.08-23.27,1.82-9.35,3.39-18.91,4.91-28.14.83-5,1.69-10.25,2.57-15.37l.71-4.07c2.25-12.82,4.57-26.08,5-39.44.15-4.8,0-9.65-.1-14.34-.11-4.07-.22-8.29-.14-12.42a128.84,128.84,0,0,0-.85-14.49c-.4-4.14-.82-8.43-.85-12.61-.07-11-5.79-19.2-11.32-27.14l-1.75-2.54a8.09,8.09,0,0,0-6-3.78c-2.07-.21-3.54-1.36-5.27-4.09a21,21,0,0,0-11.55-9l-3.52-1.25,1.68,3.34c.57,1.13,1.05,2.16,1.49,3.1a31.46,31.46,0,0,0,2.72,5.05c2.7,3.79,2.43,7.77-.73,10.64-4.88,4.43-4.22,8.86-2.79,13a21,21,0,0,1,.84,6.08q0,.91.09,1.83c.32,5.14-.91,10-2.21,15-.61,2.39-1.24,4.86-1.69,7.35a119.28,119.28,0,0,0-1.42,14.86c-.21,4.08-.43,8.29-1,12.33-2.32,16-5.33,32.15-8.23,47.79q-1.26,6.76-2.5,13.53c-.63,3.43-1.22,6.86-1.81,10.3-1.79,10.35-3.64,21.06-6.37,31.32A146.47,146.47,0,0,0,322.11,216.41ZM357.78,38.32c-1.13-4.74,1-7.78,3.53-11.29l.72-1a1.54,1.54,0,0,1,1.43-.61h.06a8.18,8.18,0,0,1,5.73,3.31c6.9,9.21,10.16,20.07,10,33.2-.06,4.54-.13,9.22.78,13.34-1.08,5.43-.81,10.39-.55,15.18l.05.87c.87,16.41-1.84,32.77-4.46,48.6-.63,3.84-1.29,7.82-1.89,11.75-1.13,7.41-2.49,14.92-3.8,22.19-1.91,10.5-3.87,21.36-5.19,32.19-.73,6-1.19,12.1-1.64,18-.79,10.42-1.6,21.2-3.92,31.57l-.19.85c-.85,3.81-1.73,7.75-2.92,11.49a108.18,108.18,0,0,0-3.12,14c-1.08,6.07-2.2,12.35-4.73,18.09-.33.75-.65,1.5-1,2.25-.4.92-.79,1.84-1.2,2.76a2.7,2.7,0,0,1-.86,1.24c-.08,0-.52-.27-1-1.18-1.67-3.46-4.52-4.87-7.28-6.24l-.47-.23c-12.24-6.08-18.26-12.64-12.79-28.11,2.2-6.2,2.7-12.56,3.2-18.71.27-3.45.56-7,1.14-10.44.18-1.08.34-2.15.5-3.23a51.32,51.32,0,0,1,2.06-9.63c1.25-3.58,1.38-7.26,1.5-10.82a46,46,0,0,1,.74-7.85c6.63-31,11.7-56.47,16-80.21,3.83-21.42,5.81-37.91,6.4-53.47a51.55,51.55,0,0,1,2.21-13.32A46.17,46.17,0,0,0,357.78,38.32Z"/><path class="cls-1" d="M324.08,124.76c-2.68-3.93-6.13-5.19-10.85-4q-2.72.7-5.43,1.46c-11.56,3.13-23.52,6.37-35.87,4.22l-.26,0h-.09a39.4,39.4,0,0,0-12.66,1.6c-3.65,1.23-4.55,3.39-4.67,5-.25,3.44,2.81,4.28,4.12,4.63,2.32.64,3.25,2.55,4.07,5.63a1.91,1.91,0,0,1-.51,1.3,3,3,0,0,1-1.37,1.08c-.71-.64-1.48-1.22-2.22-1.79-2.53-1.94-4.72-3.62-5-6.75-.24-2.71-2.94-5.49-5.38-7.18-1.31-.91-4.68-3-7.5-2.18a34.18,34.18,0,0,0-9.48,3.84c-7.08,4.53-11.85,11.17-16.47,17.6l-1,1.34c-10.32,14.3-17,31-22.23,45.51-4.63,12.87-7.72,26.49-10.71,39.66q-1,4.32-2,8.63c-2.72,11.65-5.05,27,1,42.09a25.25,25.25,0,0,1,1.24,5c.72,3.95,1.52,8.43,6,11,.89.51,1.77,1,2.66,1.57,4.36,2.59,8.87,5.27,14,6.38a47.54,47.54,0,0,0,9.91,1.05,51.44,51.44,0,0,0,21.21-4.76c11-4.95,19.72-4.62,28.18,1.07a7.69,7.69,0,0,0,4.24,1.26,5,5,0,0,0,4.24-2.12,42.92,42.92,0,0,1,4.36-5.2c2.61-2.81,5.31-5.71,6.91-9.81a74.88,74.88,0,0,0,2.82-9.59,68.67,68.67,0,0,1,2.84-9.53c1.44-3.56,2.93-7.24,4.16-11,1.67-5.06,2.18-10.28,2.68-15.32.31-3.18.63-6.46,1.24-9.61a63.67,63.67,0,0,1,2.18-7.68c.71-2.18,1.45-4.43,2-6.75,1.38-5.89,1.59-11.89,1.8-17.71s.44-12.13,1.94-18c.45-1.78.8-3.62,1.13-5.4,1.09-5.85,2.12-11.38,6.94-15.11s8-8.37,11.11-12.91l.45-.65c9.36-13.56,9.37-14.34.18-27.8ZM185.17,267.52a87.71,87.71,0,0,1,3.83-28c2-6.4,3.61-13,5.17-19.33,1.81-7.36,3.68-15,6.15-22.27a67.62,67.62,0,0,1,4.45-9.67,72.62,72.62,0,0,0,4.51-9.74c4.82-13.9,13.66-25.12,20.83-33.34.39-.45.77-.92,1.15-1.38a13.42,13.42,0,0,1,4.05-3.8l.47-.23c2.18-1.08,3.85-1.91,5.1-1.91a2.27,2.27,0,0,1,.75.12c1.06.39,2.14,1.86,3.3,4.49,2.2,5.05,6.77,8.61,10.1,11.21,2.46,1.91,6,2.16,9.55.66,3.83-1.64,6.53-4.92,6.87-8.37a17.62,17.62,0,0,0,0-3.26c-.23-2.9-.43-5.41.06-5.91s3.26-.35,5.69-.22c11,.61,21.43-2.13,31.55-4.77l3.09-.8c3.7-1,5.18.16,7.3,3.21,2.22,3.2,3,5.45.81,8.17-1.61,2-3.06,4.09-4.47,6.13-2.85,4.16-5.55,8.09-9.58,11.22-6.53,5.08-7.94,12.6-9.3,19.87-.36,1.91-.73,3.87-1.19,5.74-1.36,5.58-1.52,11.31-1.67,16.84-.16,6.15-.32,12-2,17.62a231.08,231.08,0,0,0-5.27,24c-2,10.84-4,22-8.24,32.54-.67,1.68-1.29,3.39-1.89,5-2.05,5.66-4,11-8.14,15.44-1.7,1.8-2.32,2-4.18,1.17-10.49-4.56-20.45-4.54-31.32.06-7.78,3.28-17,6.3-26.57,3.73a26.93,26.93,0,0,1-6.84-3.3,32.84,32.84,0,0,0-6.68-3.34,3,3,0,0,1-1.17-1.61c-.77-2.7-1.7-5.37-2.6-8-2.21-6.37-4.31-12.4-3.71-17.85v-.18Z"/><path class="cls-1" d="M494.42,157.64a8.44,8.44,0,0,0-3.14-6.8,9.79,9.79,0,0,0-8.41-1.5,16.13,16.13,0,0,0-9.11,5.59c-3.07,3.85-6.64,5.32-11.23,4.64a15.42,15.42,0,0,0-5,.1c-1,.17-2,.31-3,.45-4.76.66-9.67,1.33-13.31,5.57a116.23,116.23,0,0,1-14.79,15,21,21,0,0,0-7.95,15.64,96.08,96.08,0,0,0,.83,16.42c.18,1.72.37,3.44.53,5.17.6,6.69,3.34,12.06,7.91,15.53a22.14,22.14,0,0,0,13.65,4.23,34.47,34.47,0,0,0,6.17-.59c2-.37,4-.8,6-1.22,6.65-1.4,13.52-2.85,20.37-2.21,5.15.48,9.6-.77,12.87-3.6a16.45,16.45,0,0,0,5.32-11.79c.28-5.58.9-11.07,1.56-16.88a241.57,241.57,0,0,0,1.94-26,38.16,38.16,0,0,0-.48-9.19A72.62,72.62,0,0,1,494.42,157.64ZM430.5,222.22c-2.7-10.52-4.09-19.39-2.11-28.5a10,10,0,0,1,4.06-6.31,62.73,62.73,0,0,0,12.9-12.32,16.59,16.59,0,0,1,13.61-6.3l1.25,0c10.17.53,16.87-2.24,21.7-9,.74-1,2.07-2.06,3.38-1.59.39.13.53.18.28,1.9a9.08,9.08,0,0,0-.15,1.57,40.65,40.65,0,0,0,.76,6.68,29.35,29.35,0,0,1,.65,8l-1.1,10.94c-1.05,10.61-2.15,21.57-3.31,32.34a4,4,0,0,1-1.23,2.74,2.41,2.41,0,0,1-1.9.37c-5.87-.95-11.29.48-16.53,1.86a69.14,69.14,0,0,1-8.11,1.8l-4.36.62c-3.35.48-6.82,1-10.24,1.35C436.82,228.77,431.39,225.71,430.5,222.22Z"/><path class="cls-1" d="M346.5,405.55a11.87,11.87,0,0,0-.63-5,100,100,0,0,1-3.67-11.35c-.95-3.41-1.94-6.94-3.24-10.32-3.91-10.14-7.46-16.7-20.9-15.47-.5,0-1,.1-1.55.16-3.13.36-6.09.69-8.41-1.29-3.67-3.14-7.84-3.15-11.45-2.74-14.13,1.58-29.67,18.54-30.23,33a49.39,49.39,0,0,0,1,10.26,58.23,58.23,0,0,1,.95,7.6c.39,10.87,5.72,17.92,16.27,21.54,9.68,3.31,19.78,5.07,29.54,6.78l4,.7a25.41,25.41,0,0,0,4.56.43,16.88,16.88,0,0,0,12.5-5,38.57,38.57,0,0,0,11.38-25.81v-.17l0-.16A17,17,0,0,1,346.5,405.55Zm-13.3,17c-2.8,4.47-6.21,7.31-9.37,7.8-3,.46-5.8-.24-8.8-1-1.06-.26-2.16-.53-3.26-.75-1.78-.34-3.56-.66-5.34-1-6.66-1.19-13.55-2.42-19.89-5.14-5.71-2.45-8.2-5.5-8.6-10.54a104.3,104.3,0,0,0-1.83-12c-.24-1.23-.46-2.35-.62-3.33.1-12.54,11.89-26.33,21-27.9,3-.52,4.87-.43,6.21,1.48,1.63,2.32,4,2.56,6.14,2.49,1.17,0,2.34,0,3.59.06a29.35,29.35,0,0,0,6.61-.23c4.87-.91,7.84,1.13,10.24,7A176.39,176.39,0,0,1,335,396.92c.72,2.48,1.46,5.05,2.24,7.56C338.62,409.06,337,416.47,333.2,422.51Z"/><path class="cls-1" d="M213.79,244.83a19.55,19.55,0,0,0,8.51.64c6.45-1.07,13-.34,20.78,2.31a12.08,12.08,0,0,0,4,.7,10.52,10.52,0,0,0,7.65-3.4,28.42,28.42,0,0,0,5.24-7.17c5.59-11,7.64-23,9.63-34.59.58-3.35,1.17-6.81,1.84-10.19a41.3,41.3,0,0,0,1.13-10.24c-.19-4-1.83-7.15-4.63-8.88s-6.3-1.81-9.93-.22c-.6.26-1.19.54-1.78.81-2.53,1.19-4.91,2.31-7.31,1.8l-.3,0c-15.63-.18-24.62,6.26-29.22,20.8A33.31,33.31,0,0,1,216,204c-1.83,3.05-3.53,6.07-4.2,9.5a53.48,53.48,0,0,1-5.36,14.46c-2.23,4.3-2.7,7.79-1.45,10.67S209.1,243.51,213.79,244.83Zm.49-12.23c2.13-5.37,4.4-10.8,6.6-16,3-7.18,6.11-14.59,8.9-22s11.67-8.69,16.75-8.85,10.24-.53,15-3.27c.2-.12.41-.27.63-.43l.41-.28c.75,1,1.08,1.68.92,2.44-1.08,4.86-1.92,9.85-2.73,14.67-1.66,9.81-3.37,19.95-7.13,29.4a62.2,62.2,0,0,1-4.85,9.33,2.2,2.2,0,0,1-2.17,1.25c-7.91-3.42-16.25-3.46-24.12-3.2l-.56,0a47.75,47.75,0,0,1-5.74,0c-1.77-.17-2.21-.47-2.31-.64S213.59,234.34,214.28,232.6Z"/></g></g></svg>