<?xml version="1.0" encoding="utf-8"?>
<!-- Generator: Adobe Illustrator 22.0.0, SVG Export Plug-In . SVG Version: 6.00 Build 0)  -->
<svg version="1.1" id="Logo" xmlns="http://www.w3.org/2000/svg" xmlns:xlink="http://www.w3.org/1999/xlink" x="0px" y="0px"
	 viewBox="0 0 563.4 599.2" style="enable-background:new 0 0 563.4 599.2;" xml:space="preserve">
<style type="text/css">
	.st0{fill:#EA0000;}
	.st1{fill:#FBFAF6;}
</style>
<g>
	<g id="Red_letters">
		<path class="st0" d="M46.3,130.6c2.6,3.7,5.8,4.1,9.9,3.6c6-0.8,12.2-0.9,16.2-3.4c5.2-0.6,8.1,1.5,11.3,1.9
			c9.2,1.2,14.4,7.9,14.6,17.2c0.2,10.2-1.3,20.1-5.5,29.4c-0.8,1.8-1.3,3.6-0.5,5.7c1.2,2.9,0.7,5.8,0.4,8.8
			c-0.5,4.7-2.2,9.9,1,14.1c3.4,4.5,4.1,9.3,3.7,14.6c-0.4,4.6,0.4,9.2,2.4,13.4c3.9,8.7,2.3,18-1.7,25.9
			c-3.7,7.2-3.5,13.1,0.1,19.5c1.8,3.3,2.9,6.7,1.5,10.5c-1.1,2.8,0.6,4.7,2.1,6.7c4.3,5.7,11.1,7.7,16.4,11.9
			c1.6,1.3,2.5,0.7,3-1.4c0.9-4,2.1-8,3-12c1.4-6.5,0.8-13.3,3.5-19.5c3.8-9,4.1-18.3,2.8-27.8c-0.5-4.2-0.9-8.4,0-12.4
			c3.5-16,7.7-31.8,11-47.8c2.6-12.4,3.4-24.9-0.6-37.3c-1-3.3-0.9-6.9,0.3-10.2c3-9.1,10.9-10.7,18.7-12.5
			c10.5-2.4,21.2-3.3,31.6-6.1c19.2-5.1,35.4-16.2,52.4-25.7c1.4-0.7,2.4-1.9,2.8-3.4c1.3-7.4,8.1-12.5,8.1-20.5
			c0-1.8,1.7-4.2,3.3-5.4c2.6-1.9,4-4.3,5.3-7c2.2-4.4,5.8-7.6,9.5-10.8c14.3-12.1,29.1-23.6,42.1-37.2c1.1-1.2,3-2.3,2.1-4.2
			c-0.9-2.1-2.8-3.5-5-3.8c-2.3-0.2-4.7,0.3-6.7,1.5c-6.3,3.4-12.9,6.2-19.7,8.3c-13.2,4.3-25.9,10.7-40,11.8
			c-9.3,0.7-18.5,1.1-27.8,2.5c-10,1.4-20.3,1.4-30.3,2.8c-17.6,2.5-35.1,5.3-52.6,8.4c-15.8,2.8-31.7,4.8-47.2,8.9
			c-8.1,2.1-16.8,3-23.5,8.7c-2.5,1.9-5.3,3.4-8.2,4.3c-3.6,1.3-7.7,1.7-10.2,5.5c-4.6,7-9.1,14.2-18.6,15.7
			c-2.4,0.4-4.9,2.9-6.5,5.1c-1.3,1.8,1.4,3.3,2.3,5s-0.3,2.6-1.5,3.1c-4.3,1.6-3.5,5.7-5,8.8c-2.4,5.1,1.5,6.7,4,9.2
			c4.2,4.3,8.4,8.7,14.8,9.5C39.8,125.2,43.7,126.9,46.3,130.6z"/>
		<path class="st0" d="M136.7,475.8c6.9-12.3,17.2-22,25-33.9s16.5-23.1,27.4-32.5c2.6-2.3,4.8-5.1,6.4-8.2
			c7.2-13.1,16.4-24.9,26.1-36.1c3.5-4,5.1-7.9,5-15c0.3-3.1-1.4-7.8-4.2-12c-2.2-3.5-4.1-7.2-5.5-11.1c-2.4-6.3-3.8-6.9-8.6-2.4
			c-7.7,7.3-15.8,14.1-23.1,22c-11.9,13-24,25.6-35.3,39.2c-4.9,5.9-10.1,5.7-14.3-0.6c-5.1-7.5-11.6-13.6-17.8-20.1
			c-15.5-16.2-29.7-33.7-46.9-48.3c-7.6-6.4-16.4-9.9-25.6-12.8c-1.3-0.4-3.2-0.9-2.9,1.8c0.4,4.2-0.4,8.5,2.1,12.5
			c2.9,4.5,2.2,9.8,1.3,14.6c-1.7,8,0.1,16.4,5,23.1c3.3,4.8,6.9,9.4,10.6,13.8c8.3,10.1,15.7,21,24.8,30.5
			c6.2,6.5,13.6,11.6,21.1,16.5c6.8,4.4,7.7,9.2,3.4,16c-1.6,2.5-3.4,4.9-5.2,7.3c-14.1,19.5-27.6,39.4-38.4,61
			c-4.1,8.3-9,16.8-10.3,25.7c-1.2,8.5-3.7,16.7-7.6,24.3c-3.9,7.6,4.5,19.2,13.2,18.7c1-0.1,1.9-0.4,2.7-1
			c4.8-3.7,10.5-6.5,13-12.6c2.6-6.6,9.5-9.6,13.3-15.4c8.5-13,16.9-26,25.9-38.6C123.7,493.2,131.3,485.4,136.7,475.8z"/>
		<path class="st0" d="M498.5,538c-13.1-4.1-26.3-2.7-39.5-4.2c-9.2-1.1-18.3,0.8-27.4,0.9c-17.3,0.3-34.4,2.8-51.6,4.5
			c-10.4,1-20.7,2.9-31.2,2.5c-13.7-0.5-26.5-5.6-39.8-8c-18.5-3.3-36.6-8.7-55.6-10c-15.1-1-30.1-2.7-45.2-4.1
			c-32.8-3.1-61.6,3.7-82.6,31.5c-0.7,1.1-1.7,2.1-2.8,2.8c-8.1,3.5-10.7,11.2-14.7,18.8c10.4-1.1,19.8,2.2,29.6,2.1
			c8.1,0,16.1,0.5,24.1,1.6c9.8,1.4,19.9,0.9,29.5-1.7c16.5-4.6,33.1-6.3,49.6-2.7c13.7,3,27.5,5.7,41.1,8.9
			c11.2,2.6,22.8,3.2,33.7,7.6c5,2,10.7,1.5,16,3.2c3.9,1.2,7.9,2,12.2,1.1c4.7-1,9.6-1.9,14.3-1.7c9.6,0.3,19.2-1,28.4-4
			c5.5-1.7,10.2-5.7,16.1-6.3c5.2-0.5,9.4-2.9,13.9-5.1c7-3.4,13.6-7.6,21.1-9.7c12.3-3.5,25.2-3.5,37.4-7.5c5.9-2,13-0.1,17.9-5.1
			c6.4-6.6,14.5-6,22.3-5.5c8.2,0.5,16.5-0.2,24.5-2.1c-5.2-2.9-10.1-3.1-14.7-4.2C516.3,539.5,506.8,540.6,498.5,538z"/>
		<path class="st0" d="M383.1,259.2c0.2,0.2,0,0.7,0.2,1c3,6.2,4.6,12.9,6.5,19.6c3.5,12.2,14.5,18.2,24.4,24.2
			c3.4,2,8.7,2.2,13.4-0.2c6.1-3.1,12-6.8,19.2-7.1c2.9-0.1,6,0.4,8.8-1c5.2-2.6,11.1-3.3,16.5-5.3c2.7-1,5.4-0.9,7.1,0.6
			c4.5,3.8,9.7,6.8,13,12c3.2,5,7,10,13,11.6c8,2,14.2-2.7,16.6-12.6c2.5-10.7,3-21.6,4.2-32.5c0.4-3,0.3-6-0.3-8.9
			c-1.1-4.2-0.8-8.1,0.1-12.3c1.9-8.7,4.3-17.4,5-26.3c0.9-11.7,1.2-23.5,2.1-35.3c0.7-9.3-2.4-18.6-0.2-27.9c0.5-2-0.3-4.3-0.4-6.4
			c-0.2-5.6-1.9-11.2-1.1-16.9c0.9-6.1,1.3-12.2,1.6-18.3c0.3-5.8-0.6-11.5-0.5-17.3c0.3-10.3,4-20.6,0.5-31.1
			c-1-3.7-1.7-7.5-2-11.3c-1.7-14.2-7.1-26.4-17.7-36.2c-1.2-1.1-2.2-3.1-3.9-2.5c-1.7,0.6-1.6,2.7-2,4.2c-0.7,2.9-1.2,5.8-1.7,8.8
			c-1.5,8.7-5.2,16.8-7.3,25.3c-3.2,13-2.4,26.4-3.2,39.7c-0.5,8.7-1.8,17.4-2.8,26.1c-0.5,4.1-3.4,6.2-7.1,6.5
			c-3.7,0.3-6.3-1.6-7.7-5.1c-1.9-4.9-5.6-9-6.4-14.5c-0.3-2.2-2.4-3.1-4.5-3.2c-1.8-0.1-3.7,0-5.5,0c-9.2-0.1-13.4,2-19.2,9.3
			c-2,2.5-4.2,4.8-6.5,6.8c-10.5,9.1-16.8,20.6-20.5,33.9c-2.1,7.9-5.5,15.3-10.3,21.9c-11.2,15.4-18.3,32.9-22.9,51.3
			C379.4,239.4,375.4,249.8,383.1,259.2z M417.2,194.9c0.2-5.7,2.9-11,7.4-14.6c5.4-4.6,10.5-9.7,15-15.2c4-4.7,10-4.5,15.5-5.5
			c1.5-0.3,3-0.3,4.5-0.1c5.3,0.8,9.3-1.1,12.6-5.2c2.1-2.6,5-4.4,8.3-5.1c5.2-1.3,9.7,1.6,9.7,6.8c0,6.6,1.9,13.2,1.2,17.6
			c-0.1,15.9-2.8,29.3-3.5,42.9c-0.4,8.7-6.5,14.9-16.5,14c-9.1-0.9-18,1.8-26.8,3.4c-14.3,2.6-24.8-4.2-26-17.8
			C418,209.2,416.8,202.1,417.2,194.9z"/>
		<path class="st0" d="M525.3,424.1c0.9-11.8,2.2-23.5,1.2-35.5c-1.1-13.1-3.5-25.1-11.5-35.9c-4.3-5.7-9.2-10.7-14-17
			c0.5,9.8-0.6,18.3-1.3,26.9c-0.6,7.1-4.2,13.7-4.3,20.9c-0.2,12.8-0.2,25.6-2.1,38.3c-1.3,8.7-2.7,17.4-6.1,25.5
			c-2.5,6-9.5,7.8-12.4,2.7c-2.7-4.8-6.4-4.9-10.7-5.4c-11.7-1.3-21.4-8.2-19.7-23c1-8.9,0.8-17.9,1.3-26.8c0.4-6.5-0.7-13,0.2-19.2
			c2-14.2-2-25.5-13-34.5c-1.3-1-2.6-2.8-4.3-2s-1.2,2.9-1.2,4.6c-0.3,9-1.2,17.9-5.2,26.1c-7.7,15.8-9.8,32.8-10.8,50
			c-0.4,6.9-0.6,14.1-1.8,20.5c-1.3,7.2-1.9,14.2-2.6,21.4c-0.5,4.1,0.3,8.2,2.2,11.9c6,12,15.1,20.6,27.9,25.1
			c1.4,0.6,2.6,1.5,3.5,2.7c4.4,5,10.3,8.5,16.9,9.8c2.3,0.5,4.6,0.2,5.7-1.8c2.9-5.5,6.8-10.6,8-17c0.7-3.2,2.2-6.3,4.3-8.8
			c1.7-2.5,4.8-3.8,7.8-3.1c3.2,0.5,4.5,2.8,5.3,5.8c0.5,2,0.6,4.3,2.7,5.7c5.1,3.4,10.1,7,15.3,10.1c5.9,3.4,12.1,7,19,2.5
			c4.8-3.1,10.2-6,14-10.1c10.8-11.6,17.3-25.3,17.6-41.6c0.1-4.6-1.9-7.6-6.6-8.5c-3.3-0.6-6.5-1.2-9.8-1.8
			C530,440.9,524.5,434.3,525.3,424.1z"/>
		<path class="st0" d="M382.1,384.2c10.7-8,18.3-19,26.8-29c3.4-4.1,3-6.7-1-10.2c-2.5-2.2-4.5-4.8-6.1-7.7
			c-2.6-4.7-6.2-8.7-12.6-7.7c-9.7,1.6-20.2-1.9-29,5c-8.7-1.1-17.1-3.5-25.1-7c-0.3-0.1-0.4-0.6-0.6-0.8
			c-5.7-4.3-11.4-8.6-19.2-8.1c-7.6,0.5-15.3,0.6-22.9,1c-1.5,0.1-2.9,0.5-4.2,1.3c-13.2,7.9-22.6,18.8-26.4,33.9
			c-0.9,3.5-2.5,6.8-4.9,9.5c-2.3,2.8-4.5,5.8-6.4,8.8c-5.7,9.4-12.2,18.2-17.7,27.7c-2.5,4.3-6.9,7.6-7.3,13.1
			c-0.2,3.5-0.3,7-0.5,10.5c0.1,4.6,0.4,9.3,1.1,13.9c1.7,11.7,3.8,23.2,8.2,34.1c2.6,6.4,5.2,13.6,12,17.1c5.8,3.2,11.1,7,16,11.5
			c3,2.6,6.1,5.2,10.3,5.5c15.9,1.3,31.2-1.1,44.1-10.5c9.3-6.8,19.8-11.8,31-14.7c3.2-0.9,6-2.9,7.7-5.8c3.4-5.1,6.4-10.5,9-16
			c3.4-7.6,5.4-15.6,8-23.4c3.7-11.2,6.4-22.5,5-34.5C376.8,395.2,376,388.8,382.1,384.2z M342.4,407.5c-0.4,9.3-4.3,18.2-10.9,24.8
			c-4.5,4.5-10.2,5.2-15.7,4.2c-11.2-2-22.5-3.7-33.3-7.4c-9.9-3.4-14.9-9.7-15.3-20.2c-0.2-5.9-2.2-11.7-2-17.8
			c0.5-13.6,15.5-30.1,28.9-31.6c3.7-0.4,7.2-0.2,10.3,2.4c3.3,2.8,7.5,1.8,11.1,1.5c12.4-1.1,15.5,4.5,19.4,14.5
			c2.7,7,4,14.7,6.9,21.7C342.8,402,341.9,404.5,342.4,407.5L342.4,407.5z"/>
		<path class="st0" d="M332.5,298.4c2.9,1.4,5.5,2.6,7.1,5.8c1.1,2.3,3.1,3.1,4.5-0.1c0.8-1.6,1.4-3.3,2.2-5
			c4.5-10.3,4.5-21.6,7.9-32.2c1.3-4.1,2.2-8.3,3.1-12.5c3.7-16.4,3.6-33.2,5.6-49.7c2.2-18.3,6.2-36.2,9-54.3
			c3.1-20.1,7.5-40.1,6.3-60.6c-0.3-5.1-0.6-10.3,0.5-16c-1-4-0.9-8.7-0.8-13.3c0.2-12.5-2.7-24-10.3-34.1c-2.6-3.5-7.8-5.3-9.6-2.6
			c-2.8,3.9-5.9,7.6-4.5,13.5c1.8,7.8,1.5,16-0.9,23.7c-1.4,4.5-2.1,9.1-2.3,13.7c-0.7,17.9-3.2,35.7-6.4,53.3
			c-4.8,26.8-10.2,53.5-16,80.2c-1.3,6.2-0.1,12.5-2.2,18.5c-1.5,4.3-1.9,8.7-2.6,13.1c-1.6,9.6-0.9,19.4-4.3,28.9
			C313.3,284.6,319.4,291.9,332.5,298.4z"/>
		<path class="st0" d="M308.8,128c-11.2,2.9-22.4,6.2-34.2,5.5c-8-0.4-8-0.3-7.3,7.7c0.1,1,0.1,2,0,3c-0.6,5.9-9.4,10.3-14,6.7
			c-3.8-2.9-7.7-6.1-9.7-10.6c-3.3-7.6-6.1-6-11.7-3.2c-2.4,1.2-3.9,3.5-5.7,5.5c-8.8,10.2-16.6,20.9-21.1,33.8
			c-2.4,6.7-6.7,12.6-9,19.4c-4.6,13.6-7,27.9-11.3,41.6c-2.8,9.2-4.1,18.9-3.9,28.5c-0.9,8.1,3.7,17.1,6.4,26.4
			c0.3,1.1,1.1,2.1,2.1,2.6c4.9,1.6,8.6,5.3,13.6,6.7c9.8,2.6,19.1-0.2,27.5-3.8c10.5-4.4,20.1-4.4,30.1-0.1
			c2.7,1.2,3.9,0.5,5.9-1.5c5.6-6,7.3-13.6,10.3-20.9c7.4-18.3,8-38,13.5-56.7c3.3-11.2,0.9-23.1,3.7-34.5c2.2-8.8,2.2-18.8,10-24.8
			c6.3-4.9,9.5-11.7,14.3-17.6c2.9-3.7,1.4-6.9-0.7-10C315.5,128.7,313.5,126.8,308.8,128z M267.2,191.3c-3,15-4.2,30.4-11.3,44.4
			c-1.3,2.5-3,4.8-5,6.8c-2.5,2.8-6.5,3.7-10.1,2.3c-7-2.4-14.1-3.6-21.5-2.4c-2.6,0.4-5.3,0.2-7.9-0.6c-8.3-2.3-10.5-7-6.5-14.8
			c2.6-4.7,4.4-9.7,5.5-14.9c0.6-3.2,2.3-6.1,4-9c1.5-2.2,2.6-4.6,3.5-7.1c4.4-13.9,12.6-19.9,27.8-19.8v0c3.5,0.8,6.7-1.2,10-2.7
			c6.6-2.9,12.1,0.7,12.5,7.8C268.4,184.8,268,188.1,267.2,191.3z"/>
	</g>
	<g id="Outline">
		<path class="st1" d="M43.2,136.4c1.6,2.4,3.6,5.2,6.5,4.7c5.9-1,12.2-0.2,17.6-2.1c5.7-2.1,10.7-1.3,16-0.4
			c4.6,0.8,9.2,4.8,8.8,9.2s-0.4,8.7-0.6,13c-0.4,6.6-3,12.6-5.9,18.5c-0.9,1.8-2.7,4-0.9,5.9c2.3,2.4,1.8,5,1.8,7.9
			c-0.1,5.3-3.3,11.3,0.5,15.9c5.4,6.5,4.4,13.8,4.4,21.2c0,2.2,0,4.2,1.4,6.1c3,4,2.7,8.3,2.1,13c-0.7,5.3-4.5,9.3-5.2,13.9
			c-1.1,7.4-1.6,15.2,3.2,22.1c1.2,1.4,1.4,3.3,0.7,5c-1.7,4.3-0.2,8.1,2.8,11.7c6.2,7.4,15.2,11,22.7,16.7c3.9,3,6.2,1.2,7.4-3.7
			c2.5-10,3.7-20.3,6.2-30.2c2.7-10.8,5.3-21.3,4.8-32.5c-0.2-4.3-1.9-8.5-0.9-12.9c3-13.8,6.2-27.5,9.7-41.3
			c3.5-13.8,3-27.5,3.2-41.4c0-1-0.4-1.9-0.9-2.7c-5-8.7,0.3-15.9,8.6-17.4c9.8-1.8,19.7-3.6,29.5-5.5c12.6-2.5,24.5-7.7,36.1-13.7
			c8.5-4.5,15.9-10.8,24.9-14.5c3.4-1.4,4.7-4.5,5.7-7.6c2.3-6.8,7.2-12.6,7.9-20.1c0.1-0.8,0.5-1.6,1.2-2.1
			c4.1-2.2,5.3-6.3,7.1-10.1c0.9-1.9,2.3-3.7,4-5c5.1-3.8,8.9-9,14.1-12.6c12.5-8.7,21.6-21.1,33.2-30.7c2.9-2.4,3.7-5.5,1.2-8.8
			c-4.7-6-11.3-7.7-18-4.2c-29.8,15.5-62,21.1-95.1,22.9c-8.6,0.4-17.2,0.9-25.8,2.2C167,29.1,151,31.9,135,34.6
			c-16.6,2.9-33.2,5.6-49.7,9.1c-7.7,1.7-15.9,2.7-22.3,7.8c-4.6,3.6-9.6,5.5-15,7c-2.6,0.7-5.1,2-6.4,4.4
			c-3.7,7-8.4,12.8-16.7,14.5c-0.8,0.1-1.5,0.5-2.1,1.1c-2.5,2.8-5.7,4.1-9.3,5.1c-3,0.8-4.4,2.9-1.9,5.9c1.9,2.3,4.2,4.5-0.2,6.7
			c-1,0.7-1.5,1.9-1.1,3.1c2.5,6.5-2.2,5-5.5,5.1c-1.4,0.1-2.9-0.5-4.8,0.8c2.6,1.7,5.5,2.6,7,4.6c4.2,6.1,10.2,10.4,15.6,15.1
			c3.2,2.8,6.8,6.4,11.2,6.2C38.4,131.2,40.9,133.1,43.2,136.4z M20.5,115.1c-2.5-2.5-6.3-4.1-4-9.2c1.4-3.1,0.7-7.3,5-8.8
			c1.2-0.4,2.4-1.4,1.5-3.1s-3.6-3.2-2.3-5c1.5-2.2,4.1-4.8,6.5-5.1c9.5-1.5,14-8.7,18.6-15.7c2.5-3.8,6.6-4.2,10.2-5.5
			c3-0.9,5.8-2.4,8.2-4.3c6.7-5.8,15.4-6.6,23.5-8.7c15.5-4,31.5-6.1,47.2-8.9c17.5-3.2,35-6,52.6-8.4c10-1.4,20.3-1.3,30.3-2.8
			c9.2-1.3,18.5-1.8,27.8-2.5c14.2-1.1,26.8-7.5,40.1-11.8c6.8-2.1,13.5-4.8,19.7-8.3c2-1.2,4.4-1.8,6.7-1.5c2.2,0.3,4.1,1.7,5,3.8
			c0.9,1.9-1,3-2.1,4.2c-13,13.6-27.8,25.1-42.1,37.2c-3.7,3.1-7.3,6.3-9.5,10.8c-1.3,2.7-2.7,5.1-5.3,7c-1.6,1.1-3.3,3.5-3.3,5.3
			c0,8-6.8,13.1-8.1,20.5c-0.4,1.5-1.4,2.7-2.8,3.4c-17,9.5-33.2,20.6-52.4,25.7c-10.4,2.8-21.2,3.6-31.6,6.1
			c-7.9,1.8-15.7,3.4-18.7,12.5c-1.2,3.3-1.3,6.9-0.3,10.2c4.1,12.4,3.2,24.9,0.6,37.3c-3.4,16-7.5,31.8-11,47.8
			c-0.9,4-0.5,8.3,0,12.4c1.2,9.5,1,18.8-2.8,27.8c-2.7,6.2-2.1,13-3.5,19.5c-0.9,4-2.1,8-3,12c-0.5,2-1.4,2.6-3,1.4
			c-5.3-4.2-12.1-6.3-16.4-11.9c-1.5-2-3.2-3.9-2.1-6.7c1.4-3.8,0.3-7.1-1.5-10.5c-3.6-6.5-3.8-12.4-0.1-19.5
			c4-7.9,5.6-17.2,1.7-25.9c-1.9-4.2-2.8-8.8-2.4-13.4c0.4-5.3-0.3-10.1-3.7-14.6c-3.2-4.2-1.5-9.4-1-14.1c0.3-3,0.8-5.9-0.4-8.8
			c-0.9-2.1-0.4-3.9,0.5-5.7c4.2-9.4,5.7-19.2,5.5-29.4c-0.2-9.3-5.4-16-14.6-17.2c-3.3-0.4-6.2-2.5-11.4-1.9
			c-4,2.5-10.1,2.5-16.2,3.3c-4.1,0.6-7.3,0.1-9.9-3.6c-2.6-3.6-6.5-5.4-11-6C28.9,123.8,24.7,119.4,20.5,115.1z"/>
		<path class="st1" d="M142.4,480.3c9.1-15,21.1-28,30.9-42.7c4.2-6.3,9.1-12.7,14.8-17.9c5.5-4.9,10.6-9.8,14.2-16.2
			c6.6-11.8,14.5-22.7,23.7-32.6c7.4-7.9,8.4-16.3,6.5-25.9c-2-10.2-9.2-18.3-12.2-28.2c-0.6-2.2-3.2-3-5.6-3.2
			c-5.4-0.6-8.5,3.1-11.9,6.1c-11.9,10.5-22.7,22.3-33.9,33.5c-9.3,9.3-16.7,20.2-26.2,29.6c-2.1-2.8-3.7-5.8-6-8.1
			c-19.8-19.7-37.2-41.6-58-60.4c-12.6-11.4-28.1-16-43-22.3c-2.4-1-3.4-0.5-3.7,2.5c-0.7,7.6,4.6,14.1,3.5,21.7
			c-0.1,0.3,0.5,0.8,0.8,1.2c3.8,4.8,3.5,10.5,2.5,15.7c-1.9,9.8,0.4,18.4,5.7,26.3c3.8,5.6,8.3,10.7,12.4,16.1
			c6.3,8.2,12.8,16.3,19.3,24.4c7,8.8,16,15.8,25.8,21.5c4,2.3,5,4.5,1.9,8.3c-2.5,3-4.6,6.4-6.9,9.6c-17.8,25-34.4,50.6-45.2,79.5
			c-1,2.7-2.5,5.7-2.2,8.4c0.7,6.7-2,12-5,17.6c-6.2,11.5-4.6,19.9,6,27.3c4.7,3.2,10.1,6.3,15.6,4c5.7-2.4,11.8-5.8,14.9-11.1
			c3.9-6.6,8.8-12.1,14-17.5c0.9-1,1.7-2,2.5-3.1c8.3-12.5,16.4-25.1,25.1-37.3C129,498.1,136.5,489.9,142.4,480.3z M91.6,540.8
			c-3.7,5.8-10.6,8.8-13.3,15.4c-2.5,6.2-8.2,8.9-13,12.6c-0.8,0.6-1.7,0.9-2.7,1c-8.7,0.5-17.1-11.1-13.2-18.7
			c3.9-7.6,6.4-15.8,7.6-24.3c1.3-8.9,6.2-17.4,10.3-25.7c10.7-21.6,24.2-41.5,38.4-61.1c1.8-2.4,3.6-4.8,5.2-7.3
			c4.3-6.8,3.4-11.6-3.4-16c-7.6-4.9-14.9-10-21.1-16.5c-9.1-9.5-16.5-20.3-24.8-30.5c-3.7-4.5-7.3-9.1-10.6-13.8
			c-4.9-6.6-6.7-15-5-23.1c0.9-4.8,1.6-10.1-1.3-14.6c-2.5-4-1.7-8.3-2.1-12.5c-0.3-2.7,1.6-2.2,2.9-1.8c9.2,2.9,18,6.4,25.6,12.8
			c17.2,14.6,31.4,32.1,46.8,48.3c6.2,6.5,12.8,12.5,17.8,20.1c4.3,6.3,9.4,6.5,14.3,0.6c11.3-13.5,23.4-26.2,35.3-39.2
			c7.2-7.9,15.4-14.7,23.1-22c4.8-4.5,6.2-3.9,8.6,2.4c1.4,3.9,3.2,7.6,5.5,11.1c2.8,4.2,4.5,8.9,4.2,12c0.1,7.1-1.5,11-4.9,15
			c-9.7,11.3-18.8,23-26.1,36.1c-1.6,3.1-3.8,5.9-6.4,8.2c-10.9,9.4-19.7,20.7-27.4,32.5c-7.7,11.8-18.1,21.6-25,33.9
			c-5.4,9.6-13,17.5-19.4,26.4C108.4,514.8,100,527.8,91.6,540.8z"/>
		<path class="st1" d="M545.8,540.6c-3.6-2.5-7.8-3.2-11.9-3.9c-19.2-3.4-38.4-6.9-57.8-8.6c-14.1-1.3-28.3-1.3-42.4-0.3
			c-14.8,1.2-29.7,1.8-44.4,3.8c-7.3,1-14.6,2.1-22,2.6c-7.9,0.5-15.6,2.2-23.7,0.7c-5.3-1-9.8-3.6-15-4.3
			c-12.5-1.8-24.8-3.9-36.9-7.6c-7.6-2.3-15.7-3.3-23.6-4.3c-11.5-1.4-23-2.1-34.5-3.2c-13.1-1.3-26.3-2.7-39.4-4
			c-3.2-0.3-6.2,0.8-9.3,1.1c-20.9,2-39.4,9.5-55.2,23.3c-2.9,2.5-5.8,4.9-7.4,8.5c-1.4,3-3.8,5.4-6.8,6.8c-3.5,1.7-6.5,4.1-7.8,7.8
			c-1,3.2-2.8,6-5.3,8.2c-1.7,1.6-3.8,3.7-2.5,5.8c1.5,2.5,3.2,5.7,7,5.6c13.6-0.5,26.9,2,40.3,3.3c5.1,0.5,10.3-1.3,15,0.1
			c10.6,3.2,21.1,0.8,31.1-1.5c13.9-3.1,27.7-6.2,41.8-3.5c14.7,2.8,29.4,6.2,43.9,9.8c6.8,1.7,13.9,0.6,20.4,3.2
			c11,4.4,22.8,5.2,34,8.5c2.9,0.8,5.9,0.9,8.9,0.4c9.8-1.6,19.8-0.8,29.6-2.2c8.9-1.3,18-1.9,25.7-7.2c2.2-1.5,4.7-2.5,7.3-2.6
			c5.4-0.2,9.6-2.7,14.2-5.1c6.7-3.6,13.4-7.6,20.6-9.8c6.9-2.1,14.1-3.4,21.3-3.8c8-0.5,15.3-4.8,23.5-5c6,0,11.7-2.7,15.4-7.3
			c1-1.2,2.8-1.5,4.5-1.7c8.3-0.7,16.6,0.5,25-0.3c4.9-0.5,9.7-1.4,14.5-2.2c3.4-0.6,3.4-3.8,4.3-6.1S547.5,541.8,545.8,540.6z
			 M539.7,545.8c-8,1.9-16.3,2.6-24.5,2.1c-7.8-0.5-15.9-1.1-22.3,5.5c-4.9,5-12,3.1-17.9,5.1c-12.2,4.1-25.1,4-37.4,7.5
			c-7.5,2.1-14.1,6.4-21.1,9.7c-4.5,2.2-8.7,4.6-13.9,5.1c-5.9,0.6-10.6,4.6-16.1,6.3c-9.2,3-18.7,4.3-28.4,4
			c-4.7-0.2-9.6,0.7-14.3,1.7c-4.3,0.9-8.2,0.1-12.2-1.1c-5.2-1.6-11-1.2-16-3.2c-10.9-4.4-22.5-5-33.7-7.6
			c-13.7-3.2-27.5-5.9-41.1-8.9c-16.5-3.6-33.1-1.9-49.6,2.7c-9.6,2.6-19.7,3.1-29.5,1.7c-8-1.1-16.1-1.6-24.1-1.6
			c-9.8,0.1-19.3-3.2-29.6-2.1c4.1-7.6,6.7-15.3,14.7-18.8c1.2-0.7,2.1-1.6,2.8-2.8c21-27.8,49.9-34.7,82.6-31.5
			c15,1.4,30.1,3.1,45.2,4.1c18.9,1.3,37.1,6.7,55.6,10c13.3,2.4,26.1,7.6,39.8,8c10.5,0.4,20.8-1.5,31.2-2.5
			c17.2-1.7,34.3-4.3,51.6-4.5c9.1-0.1,18.2-2,27.4-0.9c13.1,1.6,26.4,0.1,39.5,4.2c8.3,2.6,17.8,1.5,26.5,3.6
			C529.6,542.7,534.5,542.9,539.7,545.8L539.7,545.8z"/>
		<path class="st1" d="M376.2,224c-1,6.3-1.7,12.7-3.2,18.8c-1.3,5.3-0.3,9.7,2.1,14.6c3.1,6.2,6.2,12.3,7.5,19.5
			c1.3,7.8,5.2,14.8,11.1,20c4.3,3.7,9.2,6.4,13.4,10.1c4.6,4.1,15.6,5.3,21.3,3.1c6.2-2.3,11.5-6.6,18.3-7.4
			c4.1-0.5,8.5,0.9,12.2-1.6c4.6-3.1,10.6-2.2,15.1-5.5c0.6-0.3,1.3-0.2,1.9,0.1c3.5,2.7,8.7,5,9.9,8.5c1.9,5.7,7.1,7.5,10,11.8
			c1.6,2.4,5.3,4.1,9,4.5c13.9,1.5,19.1-5.4,22.4-14.5c3.1-8.6,2.2-17.9,4.1-26.7c1.4-6.5,1.1-12.9,0.7-19.3
			c-0.2-3.6-0.9-7-0.2-10.7c2.2-12.1,5.3-23.9,5.8-36.3c0.3-8-0.3-16.2,1.5-24.2c0.9-4.2,1.7-9.1-0.1-13.2
			c-1.5-3.6-0.8-6.8-0.4-10.3c0.6-4.8,0.6-9.6,0.1-14.4c-0.6-5.7-2.1-11.2-0.7-17.2c2-8.3,1-17,0.8-25.5c-0.2-8.3-1.2-16.5,0.8-24.6
			c0.5-2.1,0.6-4.3,0.1-6.4c-1.3-6.1-2.4-12.2-3.6-18.4c-2.5-13.4-4.1-27.2-15.5-36.9c-2-1.7-3.2-4.2-5-6.2
			c-3.6-4-6.2-8.8-10.7-12.2c-2.2,16.3-4,31.9-10.5,46.6c-1.2,2.7-2,5.6-2.3,8.6c-1.5,16.8-2.7,33.6-4.1,50.4
			c-0.3,3.5-1.2,6.8-1.1,10.4c0.1,1.4-0.7,2.6-2,3c-0.8,0.2-1.5,0.1-1.9-1c-1.4-5.2-6.1-9.1-6-14.9c0-1.7-1.3-2.5-2.3-3.7
			c-4.4-4.8-10-3-15.3-3.2c-7.7-0.1-15,3.1-20.2,8.7c-3.3,3.4-6,7.8-9.7,11c-10.5,9.2-16.7,20.8-20.5,34c-2,7-4.5,13.8-9.1,19.9
			c-11,14.8-17.3,32-23.7,49.1C376.3,223,376.2,223.5,376.2,224z M381.9,229.8c4.6-18.3,11.7-35.8,22.9-51.3
			c4.7-6.6,8.2-14,10.2-21.9c3.7-13.3,10-24.8,20.5-33.9c2.4-2.1,4.6-4.4,6.5-6.8c5.7-7.3,10-9.4,19.1-9.3c1.8,0,3.7-0.1,5.5,0
			c2.2,0.1,4.2,1,4.5,3.2c0.8,5.5,4.5,9.6,6.4,14.5c1.3,3.5,3.9,5.5,7.7,5.1c3.8-0.4,6.6-2.4,7.1-6.5c1-8.7,2.3-17.4,2.8-26.1
			c0.8-13.3,0-26.7,3.2-39.7c2.1-8.5,5.8-16.6,7.3-25.3c0.5-3,1-5.9,1.7-8.8c0.4-1.5,0.1-3.6,2-4.2s2.8,1.5,4,2.5
			c10.6,9.8,16,22,17.7,36.2c0.3,3.8,1,7.6,2,11.3c3.5,10.5-0.1,20.8-0.5,31.1c-0.2,5.8,0.8,11.5,0.5,17.4
			c-0.3,6.1-0.7,12.2-1.6,18.3c-0.9,5.7,0.9,11.2,1.1,16.9c0.1,2.1,0.9,4.4,0.4,6.4c-2.2,9.4,0.9,18.7,0.2,28
			c-0.9,11.8-1.2,23.6-2.1,35.3c-0.7,8.8-3.1,17.6-5,26.3c-0.9,4.1-1.3,8-0.1,12.3c0.6,2.9,0.7,6,0.3,8.9
			c-1.2,10.9-1.7,21.8-4.2,32.5c-2.4,9.8-8.6,14.6-16.6,12.6c-6-1.6-9.8-6.6-13-11.6c-3.3-5.2-8.5-8.2-13-12
			c-1.7-1.5-4.5-1.6-7.1-0.6c-5.4,2-11.3,2.7-16.5,5.4c-2.8,1.4-5.9,0.9-8.8,1c-7.2,0.3-13.2,4-19.2,7.1c-4.7,2.4-10,2.2-13.4,0.2
			c-9.9-6-20.9-12-24.4-24.2c-1.9-6.7-3.5-13.4-6.5-19.6c-0.2-0.3,0-0.8-0.2-1C375.4,249.8,379.5,239.3,381.9,229.8z"/>
		<path class="st1" d="M551.1,437.8c-2.7-0.5-5.5-0.9-8.2-1.3c-8.4-1.2-12.2-4.5-11.4-11.1c0.5-4.8,1-9.6,1.5-14.4
			c1.8-18.4-1-36.1-6-53.7c-0.3-1-1.5-1.8-2.2-2.7c-6.5-8.8-14.9-16.2-19.4-26.5c-0.8-1.9-1.4-3.8-4.1-3.5c-2.6,0.2-5,1.4-5.9,3.7
			c-0.9,2.4-1.9,5-1.2,7.7c2.2,8.1-0.3,16.1-0.6,24.1c-0.3,7.2-3.9,13.9-4.4,21.1c-0.8,12.8-0.5,25.6-2.1,38.3
			c-1.1,9.2-2.8,18.2-6.9,27.1c-2-7.2-6.8-8.2-13.2-8.2c-11.9,0-18.2-6.6-16.8-16.8c1.9-13,0.1-26.2,2-39.2c0.4-2.5-1.3-4.5-0.8-7.2
			c1.7-8.4,1.1-16.7-2.7-24.6c-3.6-7.5-9.6-12.9-15.9-18.1c-4-3.3-7.3-3-10.3,1.3c-1.4,2-1.4,4.3-1.4,6.6c0.1,11.3-1.5,22.1-7.4,32
			c-1.1,2-2,4.1-2.5,6.3c-3.6,16.2-5.7,32.6-7.3,49.1c-0.5,4.7,1.2,9.9-1,13.9c-4.7,8.5-0.3,17.5-2.7,26c4.6,16.7,16,27.5,30.7,35.5
			c1.2,0.7,2.8,0,4,1.4c5.4,6.2,12.4,10,20.2,12.4c5.4,1.7,10.8,0.4,13.4-4.6c2.4-4.4,5-8.7,7-13.4c1.8-4.1,0.7-10.1,6.4-12.2
			c1.3,3.2,1.2,7.3,4.4,9.2c8.8,5.1,16.5,11.9,26,15.8c2.1,1,4.4,1.4,6.7,1.1c12.1-2.2,21.3-9.3,28.8-18.3
			c8.6-10.5,14.1-22.6,15.3-36.5C564.1,447.2,563,439.8,551.1,437.8z M539.7,494.4c-3.9,4.1-9.2,7-14,10.1c-7,4.5-13.1,0.9-19-2.5
			c-5.3-3.1-10.2-6.8-15.3-10.1c-2.1-1.4-2.2-3.7-2.7-5.7c-0.8-2.9-2.1-5.2-5.3-5.8c-3-0.7-6.1,0.6-7.8,3.1
			c-2.1,2.6-3.6,5.6-4.3,8.8c-1.1,6.4-5.1,11.5-8,17c-1.1,2.1-3.3,2.4-5.7,1.8c-6.5-1.4-12.5-4.8-16.9-9.8c-0.9-1.2-2.1-2.1-3.5-2.7
			c-12.8-4.5-21.9-13.1-27.9-25.1c-1.9-3.6-2.7-7.8-2.2-11.9c0.7-7.2,1.3-14.2,2.6-21.4c1.2-6.5,1.3-13.7,1.8-20.5
			c1-17.1,3.2-34.2,10.8-50c4-8.2,4.8-17.1,5.2-26.1c0.1-1.6-0.5-3.8,1.2-4.6c1.7-0.8,3,1,4.3,2c11,9,15,20.4,13,34.5
			c-0.9,6.2,0.2,12.8-0.2,19.2c-0.5,8.9-0.3,17.9-1.3,26.8c-1.7,14.8,8,21.6,19.7,23c4.4,0.5,8,0.7,10.7,5.4
			c2.9,5.1,9.9,3.3,12.4-2.7c3.4-8.2,4.8-16.8,6.1-25.5c1.9-12.7,1.9-25.5,2.1-38.3c0.1-7.2,3.7-13.8,4.3-20.9
			c0.7-8.5,1.9-17.1,1.4-26.8c4.8,6.3,9.7,11.3,14,16.9c8,10.8,10.5,22.8,11.5,35.9c1,12-0.3,23.7-1.2,35.5
			c-0.8,10.2,4.7,16.8,15.6,18.6c3.3,0.5,6.5,1.1,9.8,1.8c4.7,0.9,6.7,3.9,6.6,8.5C557,469.1,550.4,482.8,539.7,494.4z"/>
		<path class="st1" d="M386.5,388.6c11.1-8.3,18.9-19.8,27.8-30.2c5.2-6,3.9-12.9-2-18.2c-1.8-1.4-3.4-3.1-4.6-5.1
			c-3.9-7.2-8.5-13.4-18.3-11.5c-2.7,0.5-5.7,0.1-8.5,0.1c-5.6-0.1-11.1,1.6-16.7,0.1c-1.1-0.3-3.1-0.7-3.6,0.8
			c-2.1,5.7-5.1,3.5-8.5,1.5c-1.6-0.9-3.4-1.4-5.2-1.4c-4.1-0.1-8-1.7-11-4.5c-4.5-4.4-10.4-7-16.7-7.4c-9.8-0.6-19.6,1.3-29.4,1
			c-1.9,0-3.4,1-5,1.9c-13.4,7.6-22.9,18.7-27.9,33.2c-2.1,5.8-4.9,11.2-8.5,16.2c-7.1,10.2-14.2,20.4-20.1,31.4
			c-0.5,1.2-1.3,2.2-2.4,3c-2.8,1.6-3.7,4.2-4.9,7c-4.1,8.6-2.9,18-2.3,26.6c0.9,12.4,4.2,24.7,7.7,36.7c3.3,11,8,21.7,19.5,27.1
			c3.4,1.5,6.5,3.6,9.1,6.2c6.4,6.7,13.6,11.5,21.6,9.9c6.7-0.3,11.5-0.5,16.2-1c13.2-1.5,24.3-7.5,34.6-15.2c3.8-2.8,7.4-5,12-6.1
			c10-2.3,18.9-5.8,24.5-16c8.6-15.9,14.3-32.8,18.2-50.3c1.9-8.5,3.5-17.1,1.3-26C382.5,394.8,382.9,391.3,386.5,388.6z
			 M382.1,384.2c-6.1,4.6-5.3,11.1-4.6,17.3c1.4,12-1.3,23.3-5,34.5c-2.6,7.8-4.6,15.8-8,23.4c-2.6,5.6-5.6,10.9-9,16
			c-1.7,2.9-4.5,4.9-7.7,5.8c-11.2,2.9-21.7,7.9-31,14.7c-13,9.4-28.3,11.8-44.1,10.5c-4.2-0.3-7.3-2.9-10.3-5.5
			c-4.9-4.5-10.2-8.3-16-11.5c-6.8-3.5-9.4-10.7-12-17.1c-4.4-10.9-6.5-22.5-8.2-34.1c-0.7-4.6-1-9.2-1.1-13.9
			c0.2-3.5,0.3-7,0.4-10.5c0.3-5.5,4.7-8.8,7.3-13.1c5.5-9.5,12-18.3,17.7-27.7c1.9-3.1,4.1-6,6.4-8.8c2.3-2.8,4-6,4.9-9.5
			c3.8-15.1,13.2-26.1,26.4-33.9c1.3-0.7,2.7-1.2,4.2-1.3c7.6-0.4,15.3-0.5,22.9-1c7.8-0.5,13.5,3.8,19.2,8.1
			c0.2,0.2,0.3,0.7,0.6,0.8c8,3.6,16.4,6,25.1,7c8.8-7,19.3-3.4,29-5c6.4-1,10,3,12.6,7.7c1.6,2.9,3.7,5.5,6.1,7.7
			c4,3.5,4.4,6.2,1,10.2C400.3,365.2,392.8,376.2,382.1,384.2z"/>
		<path class="st1" d="M318.5,229.4c-1.2,5.3-2.7,10.9-2.3,16.6c0.5,6.9-1.1,13.4-3.3,19.8c-2.3,6.9-3.5,13.8-1.1,21
			c2.9,8.6,9.9,12.7,17.1,16.8c1.6,0.9,3.6,1.1,4.4,3.4c1.6,4.7,5.8,5.3,10,5.6c4.2,0.3,5.5-3.1,6.8-6.1c4.4-9.9,6-20.6,8.2-31.1
			c1.4-6.7,3.6-13.2,4.9-19.9c1.8-9.8,2.3-20,3.5-29.8c1.5-11.8,2.2-23.8,4.5-35.6c2.8-14.5,5-29.1,7.5-43.5
			c2.5-14.4,5.2-28.7,5.7-43.3c0.3-8.9-0.4-17.7-0.2-26.7s-1.6-18.1-1.7-27.1c-0.1-11.6-6.8-20-12.8-28.8c-1.1-1.7-2.9-2.9-4.9-3.1
			c-3-0.3-4.8-2.2-6.4-4.8c-2.5-4-6.3-7-10.8-8.4c1.7,3.4,2.6,5.9,4.1,8c3.3,4.6,2.6,9.4-0.9,12.6c-4,3.6-3.8,7.2-2.4,11.4
			c1,2.7,0.8,5.5,1,8.3c0.5,7.9-2.6,15.2-3.9,22.8c-1.6,8.9-1.1,18.2-2.4,27.1c-3,20.5-7.1,41-10.8,61.4
			c-2.5,13.9-4.6,28.1-8.2,41.7C321.2,208.1,320.8,218.9,318.5,229.4z M328,208c5.7-26.6,11.1-53.3,16-80.2
			c3.2-17.6,5.7-35.3,6.4-53.3c0.2-4.7,0.9-9.3,2.3-13.7c2.4-7.7,2.8-15.9,0.9-23.7c-1.4-5.9,1.7-9.6,4.5-13.5
			c1.8-2.6,7-0.9,9.7,2.6c7.6,10.1,10.4,21.6,10.3,34.1c-0.1,4.6-0.1,9.3,0.8,13.3c-1.2,5.7-0.8,10.9-0.5,16
			c1.1,20.6-3.3,40.5-6.4,60.7c-2.8,18.1-6.8,36.1-9,54.3c-2,16.6-1.9,33.4-5.6,49.7c-0.9,4.2-1.8,8.4-3.1,12.5
			c-3.4,10.6-3.4,21.9-7.9,32.2c-0.7,1.7-1.4,3.3-2.2,5c-1.4,3.2-3.4,2.4-4.5,0.1c-1.5-3.2-4.2-4.3-7.1-5.8
			c-13.1-6.5-19.2-13.8-13.5-30c3.3-9.5,2.6-19.3,4.3-28.9c0.7-4.4,1.1-8.8,2.6-13.1C328,220.5,326.7,214.2,328,208z"/>
		<path class="st1" d="M310.9,120.8c-13.7,3.6-27.3,8.2-41.9,5.7c-4.2-0.2-8.3,0.3-12.3,1.5c-1.6,0.5-3.5,1.7-3.6,3.7
			c-0.1,2,1.2,2.6,3,3.1c3.3,0.9,4.4,3.8,5.1,6.7c0.6,2.1-2.8,5.2-4.2,4c-3.1-2.8-7.4-4.7-7.8-9.6c-0.3-3.6-7.4-9-11-8
			c-3.2,0.8-6.2,2-9.1,3.7c-7.3,4.7-12.2,11.8-17,18.6c-9.8,13.7-16.4,29.4-22,45.1c-5.6,15.5-8.9,32-12.6,48.1
			c-3.2,13.7-4.5,27.7,1,41.2c2.1,5.2,0.9,12,6.6,15.3c5.2,3,10.3,6.5,16.3,7.8c10.4,2.2,20.6,0.7,30.2-3.6
			c10.2-4.6,19.9-5.3,29.6,1.2c1.9,1.2,5,1.5,6.4-0.5c3.4-5.1,8.7-8.4,11.1-14.7c2.4-6.3,3.1-12.9,5.6-19.1
			c1.5-3.6,2.9-7.2,4.1-10.9c2.7-8.1,2.3-16.5,3.9-24.7c1-4.9,3-9.5,4.2-14.5c2.7-11.8,0.7-24,3.7-35.8c1.9-7.6,1.8-16,8.6-21.3
			c4.7-3.6,7.8-8.3,11.1-13c9.2-13.4,9.2-13.2,0.2-26.4C317.7,120.6,314.9,119.8,310.9,120.8z M318.4,141.7
			c-4.7,5.9-8,12.7-14.3,17.6c-7.8,6-7.8,16-10,24.8c-2.8,11.4-0.4,23.4-3.7,34.5c-5.5,18.7-6.2,38.4-13.5,56.7
			c-3,7.3-4.7,14.9-10.3,20.9c-1.9,2-3.2,2.7-5.9,1.5c-10-4.3-19.7-4.4-30.1,0.1c-8.4,3.6-17.7,6.4-27.5,3.8
			c-5-1.4-8.7-5.1-13.6-6.7c-1-0.5-1.8-1.5-2.1-2.6c-2.7-9.4-7.2-18.3-6.4-26.4c-0.3-9.7,1.1-19.3,3.9-28.6
			c4.3-13.8,6.7-28,11.3-41.6c2.3-6.8,6.7-12.7,9-19.4c4.5-13,12.3-23.7,21.1-33.8c1.8-2,3.2-4.3,5.7-5.5c5.6-2.8,8.3-4.4,11.7,3.2
			c2,4.5,5.9,7.7,9.7,10.6c4.6,3.6,13.4-0.7,14-6.7c0.1-1,0.1-2,0-3c-0.7-8-0.7-8.2,7.3-7.7c11.8,0.7,23-2.6,34.2-5.5
			c4.7-1.2,6.7,0.6,8.9,3.8C319.9,134.9,321.4,138.1,318.4,141.7z"/>
		<path class="st1" d="M444.6,234.1c8.8-1.6,17.6-4.3,26.8-3.5c10.1,0.9,16.1-5.3,16.5-14c0.7-13.6,3.4-27,3.5-42.9
			c0.6-4.4-1.2-11-1.2-17.6c0-5.3-4.5-8.1-9.7-6.8c-3.3,0.7-6.2,2.5-8.3,5.1c-3.3,4.1-7.3,6-12.6,5.2c-1.5-0.2-3-0.2-4.5,0.1
			c-5.5,1-11.5,0.9-15.5,5.5c-4.5,5.5-9.6,10.6-15,15.2c-4.5,3.5-7.2,8.9-7.4,14.6c-0.5,7.2,0.7,14.2,1.4,21.4
			C419.9,229.9,430.3,236.8,444.6,234.1z M424.2,191.8c0.6-2.9,2.2-5.5,4.7-7.2c4.8-3.4,9-7.4,12.6-12c4.3-5.4,10.1-7.1,16.1-6.8
			c8.4,0.4,15.3-1.3,20.4-8.4c1.2-1.7,3.2-2.8,5.1-2.1c2.2,0.8,1.1,3.2,1.1,4.9c0,5,1.9,9.8,1.4,14.9c-1.5,14.5-2.9,28.9-4.4,43.2
			c-0.3,2.7-1.8,4.9-4.9,4.4c-8.5-1.3-16.1,2.6-24.2,3.7c-4.9,0.7-9.8,1.5-14.6,2c-4,0.4-10.1-3.2-11.2-7.3
			C423.9,211.5,422,201.8,424.2,191.8z"/>
		<path class="st1" d="M341.8,399.6c-2.9-7-4.2-14.7-6.9-21.7c-3.9-10-6.9-15.7-19.4-14.5c-3.6,0.3-7.8,1.3-11.1-1.5
			c-3.1-2.6-6.6-2.8-10.3-2.4c-13.4,1.5-28.4,18-28.9,31.6c-0.2,6.1,1.7,11.8,2,17.8c0.4,10.4,5.4,16.8,15.3,20.2
			c10.9,3.7,22.1,5.4,33.3,7.4c5.5,1,11.2,0.4,15.7-4.2c6.7-6.6,10.6-15.5,10.9-24.8C341.9,404.6,342.8,402.1,341.8,399.6z
			 M321.3,430.3c-4.4,0.7-8.4-0.9-12.6-1.7c-8.6-1.7-17.3-2.7-25.5-6.2c-5.4-2.3-9-5.4-9.5-11.8c-0.5-5.9-1.8-11.6-2.5-15.3
			c0-12.8,12-27.7,22.2-29.5c2.7-0.5,5.7-0.8,7.7,2.1c1.2,1.7,2.9,1.9,4.9,1.8c3.3-0.1,6.8,0.5,10-0.1c6.8-1.2,9.8,2.9,11.9,8
			c3.4,8.1,5.4,16.7,8,25.1C338.8,411.8,330.5,428.9,321.3,430.3z"/>
		<path class="st1" d="M255.8,173.7c-3.3,1.5-6.5,3.5-10,2.7c-15.2-0.1-23.4,5.9-27.8,19.8c-0.9,2.5-2.1,4.9-3.5,7.1
			c-1.7,2.9-3.4,5.8-4,9c-1.1,5.2-3,10.2-5.5,14.9c-4,7.8-1.8,12.5,6.5,14.8c2.5,0.8,5.2,1,7.9,0.6c7.4-1.2,14.5,0,21.5,2.4
			c3.5,1.4,7.5,0.5,10.1-2.3c2-2,3.7-4.3,5-6.8c7.1-14,8.4-29.4,11.3-44.4c0.8-3.2,1.1-6.6,1.1-9.9
			C268,174.3,262.5,170.8,255.8,173.7z M262.2,183L262.2,183c-3.3,14.7-4.2,30-9.9,44.3c-1.4,3.3-3.1,6.5-5,9.6
			c-0.7,1.4-2.2,2.2-3.8,2c-7.6-3.4-15.6-3.5-23.7-3.2c-2.2,0.1-4.3,0.1-6.5,0c-3.1-0.3-4.7-1.1-3.1-5c5-12.7,10.7-25.2,15.5-38
			c2.7-7.2,10.6-9.6,18.1-9.8c5.1-0.2,9.8-0.5,14.3-3.1c0.8-0.5,1.9-1.8,3-0.3C261.9,180.4,262.4,181.7,262.2,183z"/>
	</g>
</g>
</svg>
